<svg xmlns="http://www.w3.org/2000/svg" viewBox="0 0 74.6 74.6">
  <defs>
    <style>
      .cls-1{fill:#fff;fill-rule:evenodd}
    </style>
  </defs>
  <g id="atom-icon" data-name="atom icon">
    <g id="atom-icon-2" data-name="atom icon 2">
      <path class="cls-1" d="M33.67 34.93c-.2.32-.4.63-.58.94-.21-.57-.39-1.12-.54-1.67.54-.08 1.12-.14 1.73-.18-.21.3-.41.6-.61.91m15 1.1a8.54 8.54 0 0 0-2.54-1.59 24.93 24.93 0 0 0-8.17-1.7h-1.1c2.37-2.86 4.66-4.39 6-4.44a1.23 1.23 0 0 1 .71.17c.62.41.79 1.68.46 3.4a.63.63 0 0 0 .49.74.61.61 0 0 0 .72-.49c.58-3-.22-4.19-1-4.7a2.34 2.34 0 0 0-1.48-.42c-2 .08-4.92 2.29-7.54 5.7a27.53 27.53 0 0 0-3 .27c-.1-.48-.18-.95-.24-1.4-.23-2 .06-3.35.78-3.72a.94.94 0 0 1 .38-.11A4.12 4.12 0 0 1 35.72 29a.61.61 0 0 0 .87-.08.63.63 0 0 0-.08-.88 5.12 5.12 0 0 0-3.43-1.52 2.25 2.25 0 0 0-.86.24 2.79 2.79 0 0 0-1.35 2 8.52 8.52 0 0 0-.08 3A13.6 13.6 0 0 0 31 33.2a16.25 16.25 0 0 0-2 .57c-2.65 1-3.27 2.25-3.31 3.16s.39 2.15 2.72 3.37a.62.62 0 0 0 .83-.27.64.64 0 0 0-.26-.85c-1.34-.7-2.09-1.5-2.06-2.19.05-1 1.66-2 4.4-2.57a26.1 26.1 0 0 0 1 2.86 22.29 22.29 0 0 0-2.08 5.36 8.89 8.89 0 0 0-.23 3 2.8 2.8 0 0 0 1.15 2.09 2.34 2.34 0 0 0 1.31.37 6 6 0 0 0 3.39-1.4.63.63 0 0 0 .15-.87.63.63 0 0 0-.87-.15c-1.44 1-2.68 1.41-3.31 1s-.82-1.86-.38-3.78a20.09 20.09 0 0 1 1.51-4.15c.15.33.31.66.47 1a25.16 25.16 0 0 0 4.86 6.87 8.55 8.55 0 0 0 2.47 1.72 3.55 3.55 0 0 0 1.32.29 2.31 2.31 0 0 0 1-.25 2.73 2.73 0 0 0 1.33-1.86 8.18 8.18 0 0 0 .14-2.87A24.32 24.32 0 0 0 42.24 36a.62.62 0 0 0-.83-.29.63.63 0 0 0-.29.84 23.13 23.13 0 0 1 2.22 7.21c.18 1.82-.12 3.13-.8 3.48s-2-.21-3.42-1.56a23.69 23.69 0 0 1-4.6-6.52c-.31-.61-.59-1.22-.85-1.83.32-.58.66-1.17 1-1.74s.76-1.15 1.15-1.67h2a23.46 23.46 0 0 1 7.78 1.68c1.79.77 2.84 1.72 2.79 2.53s-.86 1.41-2.27 2a.63.63 0 0 0 .22 1.21.85.85 0 0 0 .22 0c2.46-1 3-2.2 3.07-3.07a2.78 2.78 0 0 0-1-2.17"/>
      <path class="cls-1" d="M36.39 37.73a1.35 1.35 0 1 0 1.35-1.37 1.36 1.36 0 0 0-1.35 1.37"/>
      <path fill="none" stroke="#fff" stroke-miterlimit="10" stroke-width=".75" d="M37.3.53L74.07 37.3 37.3 74.07.53 37.3z"/>
    </g>
  </g>
</svg>
