<svg xmlns="http://www.w3.org/2000/svg" viewBox="0 0 74.67 74.67">
  <defs>
    <style>
      .behance-1{fill:#fff}
    </style>
  </defs>
  <g id="behance_2" data-name="behance 2">
    <g id="behance_1-2" data-name="behance 1">
      <path class="behance-1" d="M47.42 37.61a4.44 4.44 0 0 0-.78-1.92A4 4 0 0 0 45 34.31a5.86 5.86 0 0 0-2.3-.43 4.84 4.84 0 0 0-3.5 1.28 4.9 4.9 0 0 0-1.35 3.71 4.43 4.43 0 0 0 1.49 3.73 5.55 5.55 0 0 0 3.45 1.14 4.87 4.87 0 0 0 3.68-1.36 3 3 0 0 0 .95-1.68h-2.66a2.16 2.16 0 0 1-.53.64 2.22 2.22 0 0 1-1.42.43 2.73 2.73 0 0 1-1.41-.35 2.2 2.2 0 0 1-1-2h7.1a13 13 0 0 0-.08-1.81zm-2.57.24h-4.41a2.5 2.5 0 0 1 .68-1.44 2.11 2.11 0 0 1 1.53-.53 2.31 2.31 0 0 1 1.51.5 2 2 0 0 1 .69 1.47zM36.21 38a3 3 0 0 0-1.57-1.15 3.23 3.23 0 0 0 1-.74 2.8 2.8 0 0 0 .63-1.91 3.17 3.17 0 0 0-.63-2 4.29 4.29 0 0 0-3.53-1.39h-6.6v13h6.19a9.74 9.74 0 0 0 1.93-.18 3.82 3.82 0 0 0 1.54-.63 3.77 3.77 0 0 0 1-1 3.69 3.69 0 0 0 .6-2.07 3.24 3.24 0 0 0-.56-1.93zm-7.51-4.9h2.54a5.5 5.5 0 0 1 1.61.2 1.16 1.16 0 0 1 .74 1.2 1.2 1.2 0 0 1-.59 1.14 2.79 2.79 0 0 1-1.44.32H28.7zm4.3 8.24a3.24 3.24 0 0 1-1.38.23H28.7v-3.46h2.93a3.76 3.76 0 0 1 1.37.22 1.39 1.39 0 0 1 .87 1.39 1.61 1.61 0 0 1-.87 1.62zM45.38 32.68h-5.5v-1.3h5.5v1.3z"/>
      <path fill="none" stroke="#fff" stroke-miterlimit="10" stroke-width=".8" d="M74.103 37.34l-36.77 36.77L.563 37.34 37.334.57z"/>
    </g>
  </g>
</svg>
