<svg xmlns="http://www.w3.org/2000/svg" viewBox="0 0 137 13.04"><defs><style>.cls-1{fill:#fff}</style></defs><g id="Layer_2" data-name="Layer 2"><g id="Layer_1-2" data-name="Layer 1"><path class="cls-1" d="M129.37 13l-1.05-.25a6.4 6.4 0 0 1-4.82-6.71 6.52 6.52 0 0 1 5.54-6c.14 0 .28-.06.42-.09h1.66l.33.09a6.34 6.34 0 0 1 5.23 4.4 12.7 12.7 0 0 1 .32 1.3V7.3a1.67 1.67 0 0 0-.08.2 6.34 6.34 0 0 1-4.87 5.31c-.33.1-.67.15-1 .23zm.9-2a4.31 4.31 0 0 0 4.36-4.47 4.37 4.37 0 0 0-4.38-4.47 4.31 4.31 0 0 0-4.39 4.45 4.37 4.37 0 0 0 4.41 4.49zM7.48 0l.84.17A6.49 6.49 0 0 1 11.58 2l-1.42 1.6c-2.59-2.39-5.43-1.66-6.72-.14a4.85 4.85 0 0 0 .16 6.29c1.31 1.38 4.09 2.05 6.57-.31l1.43 1.43a6.46 6.46 0 0 1-3.41 2l-.8.17H5.74a1.57 1.57 0 0 0-.29-.04A6.35 6.35 0 0 1 0 7 6.42 6.42 0 0 1 4.7.25l1-.25zM98.07 9.8l3.8-9.64h2.39c0 .12-.06.23-.1.32l-5 12a.47.47 0 0 1-.54.35c-.51 0-1.15.16-1.52-.08s-.46-.89-.65-1.36Q94.19 6 91.94.59c-.06-.13-.1-.27-.17-.44h2.26c.12 0 .29.22.36.38l3.48 8.77zM44.79 12.73h-2.17a.41.41 0 0 1-.31-.21c-.39-1-.75-2-1.14-2.94-.25-.64-.54-1.27-.83-1.9L38.21 3c0-.09-.08-.18-.16-.33-.47 1.08-.92 2.1-1.36 3.12-.93 2.17-1.87 4.34-2.79 6.52a.53.53 0 0 1-.6.39h-1.88c.07-.17.12-.3.18-.43q2.64-6 5.27-11.9a.54.54 0 0 1 .6-.4 7.69 7.69 0 0 0 1.27 0 .52.52 0 0 1 .58.38q2.38 5.42 4.79 10.83c.22.51.43 1 .68 1.55zM65.2.15h2.21v10.59h6.74v2.01H65.2V.15z"/></g></g></svg>