<svg xmlns="http://www.w3.org/2000/svg" viewBox="0 0 746.8 71.8">
  <defs>
    <style>
      .cls-1{fill:none;stroke:#fff;stroke-miterlimit:10;stroke-width:.8px}
    </style>
  </defs>
  <g id="calvo-hero" data-name="calvo hero">
    <g id="calvo-hero-2" data-name="calvo hero 2">
      <path class="cls-1" d="M704.85 71.4c-1.91-.45-3.84-.85-5.74-1.35-16.68-4.42-27.27-19.2-26.2-36.55A35.44 35.44 0 0 1 703 .91c.77-.12 1.53-.34 2.29-.51h9.07c.6.16 1.18.37 1.78.48 14.13 2.58 23.82 10.36 28.5 24 .76 2.2 1.16 4.54 1.72 6.81v8.52a6 6 0 0 0-.42 1.06c-2.76 15.12-11.67 24.72-26.52 29-1.81.52-3.69.83-5.53 1.23zm4.89-11.15c13.58 0 23.8-10.47 23.76-24.34s-10.34-24.28-23.87-24.36-23.87 10.37-23.87 24.22 10.4 24.49 23.98 24.48zM41.11.4l4.6.94a34.9 34.9 0 0 1 17.74 9.87L55.74 20c-14.14-13-29.6-9-36.63-.73-8.11 9.54-7.75 25.05.89 34.2 7.12 7.53 22.27 11.2 35.75-1.65l7.8 7.78A35.36 35.36 0 0 1 45 70.47l-4.35.93h-9a12.6 12.6 0 0 0-1.57-.4A34.61 34.61 0 0 1 .48 38.64C-.64 21.22 9.74 6.21 26 1.78c1.86-.51 3.76-.92 5.65-1.38zM534.43 53.79c7-17.82 13.84-35.14 20.68-52.49h13c-.19.62-.3 1.2-.52 1.73Q554 35.74 540.37 68.48a2.58 2.58 0 0 1-3 1.9c-2.81-.17-6.28.86-8.27-.45s-2.49-4.83-3.57-7.41Q513.28 33.06 501 3.59c-.29-.7-.53-1.42-.89-2.37 4.29 0 8.28-.1 12.26.1.71 0 1.63 1.22 2 2.06q9.54 23.87 18.94 47.78c.28.71.6 1.41 1.12 2.63zM244.27 69.74c-4.23 0-8 .06-11.81 0a2.31 2.31 0 0 1-1.67-1.17c-2.12-5.31-4.07-10.69-6.19-16-1.4-3.49-3-6.91-4.54-10.33q-5.76-12.64-11.58-25.25c-.22-.49-.47-1-.87-1.78-2.56 5.85-5 11.41-7.42 17Q192.56 49.88 185 67.62c-.68 1.59-1.46 2.27-3.29 2.18-3.3-.18-6.61 0-10.2 0 .38-1 .63-1.67.94-2.37Q186.82 35 201.16 2.58c.7-1.59 1.49-2.3 3.3-2.16a49.22 49.22 0 0 0 6.87 0 2.81 2.81 0 0 1 3.16 2q13 29.53 26.12 59c1.17 2.66 2.33 5.3 3.66 8.32zM355.41 1.2h12.05v57.7h36.72v10.9h-48.77V1.2z"/>
    </g>
  </g>
</svg>
