<svg xmlns="http://www.w3.org/2000/svg" viewBox="0 0 74.67 74.67">
  <defs>
    <style>
      .email-1{fill:#fff;fill-rule:evenodd}
    </style>
  </defs>
  <g id="email_2" data-name="email 2">
    <g id="email_1-2" data-name="email 1">
      <path class="email-1" d="M38.79 38.26a2.14 2.14 0 0 1-2.91 0l-1.8-1.72-6.54 6.23a.93.93 0 0 0 .34.06h18.9a1.09 1.09 0 0 0 .36-.06l-6.55-6.23z"/>
      <path class="email-1" d="M37.33 37.83a1 1 0 0 0 .72-.28l9.08-8.66a1.28 1.28 0 0 0-.35-.06h-18.9a1.21 1.21 0 0 0-.34.06l9.08 8.66a1 1 0 0 0 .71.28zM26.85 29.66a.88.88 0 0 0 0 .17v12a1.1 1.1 0 0 0 0 .18l6.49-6.18zM47.82 29.66l-6.49 6.17L47.82 42a1.09 1.09 0 0 0 0-.18v-12a.91.91 0 0 0 0-.16z"/>
      <path fill="none" stroke="#fff" stroke-miterlimit="10" stroke-width=".8" d="M74.103 37.34l-36.77 36.77L.563 37.34 37.334.57z"/>
    </g>
  </g>
</svg>
