<svg xmlns="http://www.w3.org/2000/svg" viewBox="0 0 60.85 60.85">
  <defs>
    <style>
      .cls-3{fill:#fff}
    </style>
  </defs>
  <g id="Layer_2" data-name="Layer 2">
    <g id="Layer_1-2" data-name="Layer 1">
      <path stroke="#fff" stroke-miterlimit="10" stroke-width="1.52" fill="none" d="M.76.76h59.32v59.32H.76z"/>
      <path fill="none" d="M.76.76h59.32v59.32H.76z"/>
      <path class="cls-3" d="M17.33 14.13h2.16V18h4v-3.87h2.16v9.8h-2.19V20h-4v3.94h-2.13zM39.73 24.1a5.43 5.43 0 0 1-2.08-.4A5.25 5.25 0 0 1 36 22.62 4.91 4.91 0 0 1 34.92 21a5.11 5.11 0 0 1-.38-2 5 5 0 0 1 .39-2A5.06 5.06 0 0 1 36 15.45a5.53 5.53 0 0 1 5.84-1.09 5.32 5.32 0 0 1 1.64 1.08A4.87 4.87 0 0 1 44.57 17a5.16 5.16 0 0 1 .43 2 5 5 0 0 1-.39 2 5.18 5.18 0 0 1-1.08 1.61 5.26 5.26 0 0 1-1.66 1.09 5.44 5.44 0 0 1-2.14.4zm0-2a2.91 2.91 0 0 0 1.27-.23 2.81 2.81 0 0 0 .93-.66 2.93 2.93 0 0 0 .6-1 3.1 3.1 0 0 0 .22-1.18 3.15 3.15 0 0 0-.22-1.19 3 3 0 0 0-.61-1 3.08 3.08 0 0 0-.95-.67 3.1 3.1 0 0 0-2.39 0 2.85 2.85 0 0 0-.92.65 3 3 0 0 0-.6 1 3.1 3.1 0 0 0-.27 1.18 3.15 3.15 0 0 0 .21 1.22 3 3 0 0 0 .61 1 3 3 0 0 0 .94.66 2.77 2.77 0 0 0 1.21.23zM16.83 34.8h2.33l2.58 4.14 2.57-4.14h2.32v9.79h-2.12V38.2l-2.76 4.18h-.06L19 38.24v6.35h-2.17zM36 34.8h7.37v1.91h-5.26v2h4.63v1.92h-4.63v2.06h5.33v1.91H36z"/>
    </g>
  </g>
</svg>
