<svg xmlns="http://www.w3.org/2000/svg" viewBox="0 0 454.43 237.57"><defs><style>.cls-2,.cls-4,.cls-6{fill:none;stroke-miterlimit:10}.cls-2,.cls-4{stroke:#fff}.cls-2{stroke-width:.69px}.cls-4{stroke-width:.34px}.cls-6{stroke:#f4f4f4;stroke-width:.51px}</style></defs><g id="Layer_2" data-name="Layer 2"><g id="Illustration"><path d="M370.39 63.87l67.86 95.81a9.62 9.62 0 0 1-6.06 15l-324.54 61.67a9.61 9.61 0 0 1-10.3-5L2.17 50.87a9.62 9.62 0 0 1 7.49-14L321.6 3.52a9.64 9.64 0 0 1 8.88 4l12.32 17.41" stroke-width="2.1" stroke="#bf4d1b" fill="none" stroke-miterlimit="10"/><path class="cls-2" d="M343.48 70.05l48.65 68.62a2.64 2.64 0 0 1-1.66 4.12L168.16 185a2.65 2.65 0 0 1-2.83-1.37L98.77 57.41a2.64 2.64 0 0 1 2-3.86l213.29-22.76a2.63 2.63 0 0 1 2.43 1.1l4.22 5.94"/><ellipse class="cls-2" cx="84.77" cy="124.99" rx="24.93" ry="19.92"/><ellipse cx="84.77" cy="124.99" rx="11.66" ry="9.32" stroke-width=".48" stroke="#fff" fill="none" stroke-miterlimit="10"/><path class="cls-4" d="M60.62 66.53l-16.56 1A1.18 1.18 0 0 1 43 67l-3.39-5.3a1.18 1.18 0 0 1 .92-1.82l16.56-1a1.16 1.16 0 0 1 1.06.54l3.39 5.3a1.17 1.17 0 0 1-.92 1.81zM67.82 78.47l-16.55 1a1.17 1.17 0 0 1-1.07-.54l-3.39-5.3a1.18 1.18 0 0 1 .92-1.81l16.56-1a1.2 1.2 0 0 1 1.07.55l3.39 5.3a1.18 1.18 0 0 1-.93 1.8zM74.45 90.41l-16.56 1a1.16 1.16 0 0 1-1.06-.54l-3.39-5.3a1.17 1.17 0 0 1 .92-1.81l16.56-1a1.19 1.19 0 0 1 1.06.54l3.39 5.3a1.18 1.18 0 0 1-.92 1.81zM116.2 166.24l-16.56 1a1.17 1.17 0 0 1-1.06-.54l-3.39-5.3a1.17 1.17 0 0 1 .92-1.81l16.56-1a1.18 1.18 0 0 1 1.06.54l3.39 5.3a1.18 1.18 0 0 1-.92 1.81zM123.1 178.17l-16.56 1a1.17 1.17 0 0 1-1.07-.54l-3.39-5.3a1.18 1.18 0 0 1 .93-1.81l16.55-1a1.17 1.17 0 0 1 1.07.54l3.39 5.3a1.18 1.18 0 0 1-.92 1.81zM130.26 191.14l-16.56 1a1.17 1.17 0 0 1-1.06-.54l-3.41-5.28a1.18 1.18 0 0 1 .92-1.82l16.55-1a1.17 1.17 0 0 1 1.07.54l3.41 5.28a1.19 1.19 0 0 1-.92 1.82z"/><path d="M288.67 86.21c1.07-.17 3.65-1.8 6.49-3.62s145.36-65.94 145.36-65.94 4.57-1.87 5.17-2.69-.42-2.26-.42-2.26 1.27-.7 4.76-2.3 3.74-3.05 4-4.5a4.25 4.25 0 0 0-3.28-4.47c-2.45-.53-9 3-9 3l-.35-1.32c-.35-1.33-1.62-.9-3-.51-1.95.53-3.29 1-3.29 1l-66.19 29.08-1-.17-44 20a5.22 5.22 0 0 0-2.35-.39c-.84.2-14.77 7.73-14.77 7.73a1.62 1.62 0 0 1-1.33.7 56.82 56.82 0 0 1-5.71 2.14c-2.92.89-3.44 2-3.44 2s-14.41 3.83-15.84 5.83c-2.26 3.18-14.32 14.61-14.32 14.61l-.25.61s-2.9 1.33-2.68 2 .6 1 1.61.71 1.92-.63 1.92-.63a1.4 1.4 0 0 0 1.38 1z" stroke-width=".76" stroke="#bf4d1b" fill="none" stroke-miterlimit="10"/><path class="cls-6" d="M296.15 65s.15 2.18.83 2.21 5.95-2 8.16-2.85A1.34 1.34 0 0 0 306 63l-.16-2.24M307.32 59.73l.2 2.24a.54.54 0 0 0 .76.44l16.19-7.11s1.94-.27.49-2.93M368 33s.84 8.66 6.31 11.66M278.91 73.85s-.5 5.67 4.9 10.5M270.8 81s.25 4 2.56 5.27M442.13 5.76l1.97 4.71"/></g></g></svg>