<svg xmlns="http://www.w3.org/2000/svg" viewBox="0 0 419.38 350.03"><defs><style>.cls-1,.cls-4,.cls-6{fill:none;stroke-miterlimit:10}.cls-1,.cls-6{stroke:#bf4d1b}.cls-1{stroke-width:2.38px}.cls-4{stroke:#fff;stroke-width:.45px}.cls-6{stroke-width:.91px}</style></defs><g id="Layer_2" data-name="Layer 2"><g id="Layer_5" data-name="Layer 5"><path class="cls-1" d="M49.86 1.19h319.66a13.09 13.09 0 0 1 13.09 13.09v219.28H36.77V14.28A13.09 13.09 0 0 1 49.86 1.19zM382.61 234.47H36.77L1.41 343.16a4.34 4.34 0 0 0 4.13 5.68h408.3a4.33 4.33 0 0 0 4.13-5.68z"/><path stroke-width="1.36" stroke="#fff" fill="none" stroke-miterlimit="10" d="M49.48 16.62H369.9v199.7H49.48z"/><path stroke-width=".68" stroke="#fff" fill="none" stroke-miterlimit="10" d="M398.05 298.92H21.33l18.17-56.28h340.38l18.17 56.28z"/><path class="cls-4" d="M41.31 248.99h334.94M38.59 257.16H381.7M34.96 267.15h349.46M31.32 277.44h356.74"/><path stroke-width=".68" stroke="#bf4d1b" fill="none" stroke-miterlimit="10" d="M262.79 295.29H159.31l3.24-7.26h97l3.24 7.26z"/><path class="cls-6" d="M276.3 343.94H141.2a2.47 2.47 0 0 1-2.46-2.75l4-34.92a2.48 2.48 0 0 1 2.46-2.21h126.31a2.47 2.47 0 0 1 2.46 2.15l4.79 34.93a2.48 2.48 0 0 1-2.46 2.8zM145 106.81a5.25 5.25 0 0 0 1.13 3.29 5.72 5.72 0 0 1-2.44.56c-2.89 0-4.59-2.55-4.59-5.38 0-3.57 2.72-7.65 9.41-7.65 4.71 0 9.53 2.49 12 1.13a1.65 1.65 0 0 1 .8 1.47 2.06 2.06 0 0 1-2 2.22h-.05l-2 30.15 13.07-29.6c1-2.55 2.78-3.62 4.87-3.62a6.72 6.72 0 0 1 3.12.73l-4.65 32.66c-.45 3.34.34 4.19 1.87 4.19 1.82 0 4.48-1.7 5.79-2.83a1.49 1.49 0 0 1 1 1.36 2 2 0 0 1-.51 1.25c-3.12 3.23-6.46 5.61-9.75 5.61-3.12 0-6.46-1.53-5.67-6.75l3.8-25.62L157.8 139a4.66 4.66 0 0 1-4.8 3.3 5.14 5.14 0 0 1-2.72-.74l2-25.11.28-6.64c-7.65 24.44-13.6 32.49-20.35 32.49-2.83 0-4.87-2.72-4.87-7.77 0-3.29 2.27-4.25 4.82-4.25a4.63 4.63 0 0 1 2.83 1 15.46 15.46 0 0 0-1.19 5.84v.51c4.48-1.7 10.2-8.67 18.48-36.34H152c-5.14-.04-7 2.86-7 5.52z"/><path class="cls-6" d="M203.94 123.14c0 8.44-6.06 19.16-15 19.16-5.84 0-8.34-4.71-8.34-10 0-8.56 6-19.27 14.52-19.27 6.21-.03 8.82 4.55 8.82 10.11zm-16 7.31c0 5 1.7 6.92 3.68 6.92 4.48 0 8.11-8.73 8.11-14.69 0-3.06-1-5.38-3.29-5.38-5.2 0-8.54 7.59-8.54 13.15zM216.92 116.79l-3.34 15.93c-.63 2.89.11 4.14 1.24 4.14s2.33-.68 3.18-2.73c1.08 0 1.7.57 1.7 1.54 0 4-4.65 6.63-7.82 6.63-2.84 0-6.81-1.65-5.39-8.39l3.63-17.12h-2.84c-.28-1.82.63-3.29 2.39-3.29h1.13l1-4.65a4.52 4.52 0 0 1 4.76-3.57 4.88 4.88 0 0 1 2.67.74l-1.59 7.48H230c2 0 3.18 1 2.72 3.12l-3.4 16.1c-.68 3.17.23 4.19 1.7 4.19a9.51 9.51 0 0 0 6-2.83 1.49 1.49 0 0 1 1 1.36 2 2 0 0 1-.51 1.25c-2.67 3-6.47 5.61-10.26 5.61-2.84 0-6.13-1.59-5-6.75l3.63-17.35c.23-1-.28-1.41-1.19-1.41zm14.63-14.86a3.55 3.55 0 0 1 3.63 4 4.61 4.61 0 0 1-4.43 4 3.41 3.41 0 0 1-3.51-4 4.41 4.41 0 0 1 4.31-4z"/><path class="cls-6" d="M265.33 119.06c-1.47 1.24-3.68 3.91-6 5.38a2.39 2.39 0 0 1 .06.62c0 8.68-8 17.24-14.79 17.24-5.84 0-8.34-4.71-8.34-10 0-8.56 5.95-19.27 14.51-19.27 2.84 0 5.11.79 6.81 3.34-.12 1.31-1.08 1.93-1.93 1.59a10.3 10.3 0 0 0-3.63-.62c-5.16 0-8.5 7.59-8.5 13.15 0 5 1.7 6.92 3.68 6.92 2.89 0 6.52-4.2 6.52-9.3a11.38 11.38 0 0 0-.28-2.33 5.56 5.56 0 0 1-2.61-.68c-1.19-3.11.06-6 3.29-6a5 5 0 0 1 4.48 2.61c2.27-1.42 4.36-3.86 6.74-5.78a2.08 2.08 0 0 1-.01 3.13z"/><path class="cls-6" d="M284.61 132.72c-.63 2.89.11 4.14 1.24 4.14s2.33-.68 3.18-2.73c1.08 0 1.7.57 1.7 1.54 0 4-4.65 6.63-7.82 6.63-2.84 0-6.86-1.42-5.45-8.05l2.38-11.25c.51-2.38-.28-3.35-1.53-3.35-1.53 0-3.79 1.42-5 2.95l-3.46 16.16a4.53 4.53 0 0 1-4.76 3.57 5 5 0 0 1-2.67-.74l4.58-21.8c.23-.91 0-1.42-.56-1.42-.29 0-.63.23-1.14.69a2.07 2.07 0 0 1 0-3.12c1.93-1.53 4-2.72 6.35-2.72 2 0 3.23 1 2.72 3.11l-.56 2.55c2.38-3.4 6-5.66 9.29-5.66 3 0 5.1 2.38 3.86 8.33z"/></g></g></svg>