<svg xmlns="http://www.w3.org/2000/svg" viewBox="0 0 74.67 74.67">
  <defs>
    <style>
      .phone-1{fill:#fff;fill-rule:evenodd}
    </style>
  </defs>
  <g id="phone_2" data-name="phone 2">
    <g id="phone_1-2" data-name="phone 1">
      <path class="phone-1" d="M42.54 23.83h-10.4a1.27 1.27 0 0 0-1.3 1.25v1.25h13v-1.25a1.28 1.28 0 0 0-1.3-1.25zM38 25.71h-1.3a.63.63 0 1 1 0-1.25H38a.63.63 0 1 1 0 1.25zM30.84 46.33v1.25a1.27 1.27 0 0 0 1.3 1.25h10.4a1.28 1.28 0 0 0 1.3-1.25v-1.25zm6.5 1.88a.63.63 0 1 1 .65-.63.64.64 0 0 1-.65.63z"/>
      <path fill="#fff" d="M30.84 27.58h13v17.5h-13z"/>
      <path fill="none" stroke="#fff" stroke-miterlimit="10" stroke-width=".8" d="M74.103 37.34l-36.77 36.77L.563 37.34 37.334.57z"/>
    </g>
  </g>
</svg>
