<svg xmlns="http://www.w3.org/2000/svg" viewBox="0 0 626.23 759.58">
  <defs>
    <style>
      .portrait-51{fill:#9b6f5b}.portrait-86{fill:#341f1c}.portrait-146{fill:#0b0a09}.portrait-156{fill:#7d533d}.portrait-227{fill:#b68b7e}.portrait-247{fill:#9a655d}.portrait-260{fill:#534a47}.portrait-264{fill:#4d4b4f}.portrait-299{fill:#2f2f30}.portrait-324{fill:#1a1817}.portrait-336{fill:#787377}.portrait-418{fill:#151314}.portrait-433{fill:#120f12}.portrait-466{fill:#1c2c5b}.portrait-515{fill:#0d112a}.portrait-523{fill:#1e2a60}.portrait-540{fill:#334382}.portrait-575{fill:#1e2b60}.portrait-577{fill:#1a234c}.portrait-600{fill:#222e64}
    </style>
  </defs>
  <g id="Layer_2" data-name="Layer 2">
    <g id="Layer_1-2" data-name="Layer 1">
      <path stroke-width="3" fill="none" stroke="#fff" stroke-miterlimit="10" d="M143.51 40.26V14.57l22.58 45.53-22.58-19.84z"/>
      <path stroke-width="6.5" fill="none" stroke="#fff" stroke-miterlimit="10" d="M517.3 347.63l53.19 36.25-91.93 37.95 38.74-74.2z"/>
      <path fill="#b38973" d="M157.31 143.85l1.26 14.51 18.93 5.37-20.19-19.88z"/>
      <path fill="#947159" d="M177.5 163.73l-3.47 6.62-15.46-11.99 18.93 5.37z"/>
      <path d="M177.5 163.73c.95 1.57 4.74 15.14 4.74 15.14l-8.24-8.52z" fill="#ae8167"/>
      <path fill="#c29687" d="M174.03 170.35v11.99l8.21-3.47-8.21-8.52z"/>
      <path fill="#d4aea0" d="M174.03 182.34l-9.46 18.62 17.67-22.09-8.21 3.47z"/>
      <path fill="#c99a90" d="M182.24 178.87l.31 28.09-17.98-6 17.67-22.09z"/>
      <path fill="#d0a99d" d="M182.55 206.96l-25.56 7.57 7.58-13.57 17.98 6z"/>
      <path fill="#d6a89a" d="M156.99 214.53l-.63 13.57 26.19-21.14-25.56 7.57z"/>
      <path fill="#c59185" d="M182.55 206.96l-10.09 20.19-16.1.95 26.19-21.14z"/>
      <path fill="#905444" d="M172.46 227.15l-4.42 8.84-11.68-7.89 16.1-.95z"/>
      <path fill="#7f463a" d="M168.04 235.99l7.57-6-3.15-2.84-4.42 8.84z"/>
      <path fill="#c99083" d="M175.61 229.99l6.94-23.03-10.09 20.19 3.15 2.84z"/>
      <path fill="#c3928a" d="M182.55 206.96l9.47 8.2"/>
      <path fill="#bc7f76" d="M175.61 229.99l10.73 1.9 5.68-16.73-16.41 14.83z"/>
      <path fill="#a96b60" d="M192.02 215.16l4.1 10.1-9.78 6.63 5.68-16.73z"/>
      <path d="M168 236c1.89-1 18.3-4.1 18.3-4.1l-10.69-1.9z" fill="#512b1a"/>
      <path fill="#8f5e4f" d="M168.04 235.99l.31 11.36 17.99-15.46-18.3 4.1z"/>
      <path fill="#ad8171" d="M168.35 247.35l18.94 4.1-.95-19.56-17.99 15.46z"/>
      <path fill="#ad8678" d="M187.29 251.45l12.62 4.74-13.57-24.3.95 19.56z"/>
      <path fill="#b17a6d" d="M186.34 231.89l9.78-6.63 3.79 30.93-13.57-24.3z"/>
      <path fill="#b78b7c" d="M199.91 256.19l6.62-22.41-10.41-8.52 3.79 30.93z"/>
      <path fill="#aa8372" d="M206.53 233.78l3.16 23.35-9.78-.94 6.62-22.41z"/>
      <path fill="#714535" d="M177.5 163.73l4.74 15.14-.32-17.67-4.42 2.53z"/>
      <path d="M182.24 178.87c0-5.05-.32-17.67-.32-17.67l6.31 9.78z" fill="#754835"/>
      <path d="M188.23 171c1.9-1.89 11.68-8.83 11.68-8.83l-18-1z" fill="#432c24"/>
      <path fill="#483830" d="M181.92 161.2l18.62-3.79-.63 4.74-17.99-.95z"/>
      <path fill="#39231c" d="M199.91 162.15l15.46 6.31-27.14 2.52 11.68-8.83z"/>
      <path fill="#4a362d" d="M200.54 157.41l14.83 11.05-15.46-6.31.63-4.74z"/>
      <path fill="#633d30" d="M215.37 168.46l-20.83 8.52-6.31-6 27.14-2.52z"/>
      <path fill="#845240" d="M194.54 176.98l-12.3 1.89 5.99-7.89 6.31 6z"/>
      <path fill="#91614e" d="M194.54 176.98l7.58 10.41-19.88-8.52 12.3-1.89z"/>
      <path fill="#b48a78" d="M202.12 187.39l-19.57 19.57-.31-28.09 19.88 8.52z"/>
      <path fill="#bb8d7c" d="M202.12 187.39l-10.1 27.77-9.47-8.2 19.57-19.57z"/>
      <path fill="#ba8876" d="M192.02 215.16l4.1 10.1 6-37.87-10.1 27.77z"/>
      <path fill="#bf917f" d="M202.12 187.39l12.62 5.68-18.62 32.19 6-37.87z"/>
      <path fill="#c69a87" d="M214.74 193.07l12.31-4.41-30.93 36.6 18.62-32.19z"/>
      <path fill="#c69483" d="M206.53 233.78l20.52-45.12-30.93 36.6 10.41 8.52z"/>
      <path fill="#a1755e" d="M206.53 233.78l26.2 16.09-23.04 7.26-3.16-23.35z"/>
      <path fill="#b0806e" d="M232.73 249.87l-5.68-61.21-20.52 45.12 26.2 16.09z"/>
      <path fill="#af806f" d="M232.73 249.87l13.88-42.28-19.56-18.93 5.68 61.21z"/>
      <path fill="#af816d" d="M246.61 207.59l1.89-38.81-21.45 19.88 19.56 18.93z"/>
      <path fill="#996d54" d="M227.05 188.66l2.84-15.47 18.61-4.41-21.45 19.88z"/>
      <path d="M229.89 173.19s-12.63-4.73-14.52-4.73-20.83 8.54-20.83 8.54z" fill="#8b644e"/>
      <path fill="#9c7059" d="M232.73 249.87l-23.99 35.03.95-27.77 23.04-7.26z"/>
      <path d="M209.69 257.13L186 274.8s22.72 10.42 22.72 10.1.97-27.77.97-27.77z" fill="#9f6f61"/>
      <path fill="#553a2d" d="M186.02 274.8l-11.36-1.26 5.05 7.57 6.31-6.31z"/>
      <path fill="#8b5f4d" d="M179.71 281.11l29.03 3.79-22.72-10.1-6.31 6.31z"/>
      <path fill="#b48878" d="M179.71 281.11l.95 18.31 28.08-14.52-29.03-3.79z"/>
      <path class="portrait-51" d="M208.74 284.9l5.37 7.89 18.62-42.92-23.99 35.03z"/>
      <path fill="#a87d69" d="M214.11 292.79l-33.45 6.63 28.08-14.52 5.37 7.89z"/>
      <path d="M180.66 299.42l13.88 12s20.51-19.88 19.57-18.62-33.45 6.62-33.45 6.62z" fill="#98765e"/>
      <path fill="#865f46" d="M214.11 292.79l.63 17.99-20.2.63 19.57-18.62z"/>
      <path fill="#7d5942" d="M214.74 310.78l17.04-2.21-17.67-15.78.63 17.99z"/>
      <path fill="#976e56" d="M231.78 308.57l-17.67-15.78 18.62-42.92-.95 58.7z"/>
      <path fill="#8d654f" d="M231.78 308.57l35.34-13.26-34.39-45.44-.95 58.7z"/>
      <path fill="#98725d" d="M267.12 295.31l17.67-64.37-34.71 17.99 17.04 46.38z"/>
      <path d="M267.12 295.31c-.94-1.26-17-46.38-17-46.38l-17.35.94z" fill="#976a58"/>
      <path fill="#a37a67" d="M250.08 248.93l-3.47-41.34-13.88 42.28 17.35-.94z"/>
      <path d="M284.79 230.94c-.94-1.26-30.61-16.41-30.61-16.41l14.2-31.87z" fill="#ac806b"/>
      <path fill="#996d56" d="M254.18 214.53l-4.1 34.4 34.71-17.99-30.61-16.41z"/>
      <path class="portrait-51" d="M254.18 214.53s-7.25-7.26-7.57-6.94 3.47 41.34 3.47 41.34z"/>
      <path fill="#ae7e6f" d="M254.18 214.53l-1.57-24.93-6 17.99 7.57 6.94z"/>
      <path fill="#b2846f" d="M252.61 189.6l-4.11-20.82-1.89 38.81 6-17.99z"/>
      <path fill="#b38677" d="M252.61 189.6l15.77-6.94-14.2 31.87-1.57-24.93z"/>
      <path fill="#cca999" d="M157.31 143.85l8.83-26.51 8.52 20.51-17.35 6z"/>
      <path fill="#c29c89" d="M174.66 137.85l2.84 25.88-20.19-19.88 17.35-6z"/>
      <path fill="#a87e68" d="M177.5 163.73l4.42-2.53-7.26-23.35 2.84 25.88z"/>
      <path fill="#c59881" d="M174.66 137.85l27.14 10.73-15.14 3.79-12-14.52z"/>
      <path d="M186.65 152.37s-5 10.41-4.73 8.83-7.26-23.35-7.26-23.35z" fill="#be907b"/>
      <path fill="#a67e6b" d="M200.54 157.41l-13.88-5.04-4.74 8.83 18.62-3.79z"/>
      <path fill="#b9907d" d="M201.8 148.58l-1.26 8.83-13.88-5.04 15.14-3.79z"/>
      <path fill="#724533" d="M229.89 173.19l-8.84 6.31-7.26-1.89 16.1-4.42z"/>
      <path fill="#7c4f3d" d="M213.79 177.61l-19.25-.63 35.35-3.79-16.1 4.42z"/>
      <path fill="#703e2f" d="M221.05 179.5l1.58 5.68 7.26-11.99-8.84 6.31z"/>
      <path fill="#8e6046" d="M222.63 185.18l4.42 3.48 2.84-15.47-7.26 11.99z"/>
      <path fill="#653e2e" d="M202.12 187.39l.31-6.94-7.89-3.47 7.58 10.41z"/>
      <path fill="#63392c" d="M202.43 180.45l12.31 12.62-12.62-5.68.31-6.94z"/>
      <path fill="#7e5139" d="M214.74 193.07l7.89-7.89 4.42 3.48-12.31 4.41z"/>
      <path fill="#7b4738" d="M222.63 185.18l-8.84.95 7.26-6.63 1.58 5.68z"/>
      <path fill="#814b3a" d="M213.79 186.13l.95 6.94 7.89-7.89-8.84.95z"/>
      <path fill="#7d4d3a" d="M213.79 186.13l-11.36-5.68 12.31 12.62-.95-6.94z"/>
      <path fill="#4d3e3e" d="M158.57 158.36l.32 4.1 4.73 2.53-5.05-6.63z"/>
      <path fill="#574b42" d="M163.62 164.99l10.41 5.36-15.46-11.99 5.05 6.63z"/>
      <path fill="#65433a" d="M163.62 164.99l6 6.94 4.41-1.58-10.41-5.36z"/>
      <path class="portrait-86" d="M169.62 171.93l2.2 4.42 2.21-6-4.41 1.58z"/>
      <path fill="#533a2c" d="M171.82 176.35l2.21 5.99v-11.99l-2.21 6z"/>
      <path class="portrait-86" d="M171.82 176.35l-8.2-3.79 6-.63 2.2 4.42z"/>
      <path fill="#c79d8c" d="M166.14 117.34l10.42-23.04 8.83 18.31-19.25 4.73z"/>
      <path fill="#c19c87" d="M185.39 112.61l-10.73 25.24-8.52-20.51 19.25-4.73z"/>
      <path fill="#be9987" d="M176.56 94.3l7.89-5.99.94 24.3-8.83-18.31z"/>
      <path fill="#ac8878" d="M184.45 88.31l17.35 6.63-7.57 9.46-9.78-16.09z"/>
      <path fill="#c39f8c" d="M194.23 104.4l-8.84 8.21-.94-24.3 9.78 16.09z"/>
      <path fill="#8b6655" d="M201.8 94.94l11.99-3.79 6 7.89-17.99-4.1z"/>
      <path fill="#b6937f" d="M219.79 99.04l-25.56 5.36 7.57-9.46 17.99 4.1z"/>
      <path fill="#9c7968" d="M213.79 91.15l23.04.31-17.04 7.58-6-7.89z"/>
      <path fill="#c79f8c" d="M194.23 104.4l6.31 21.77-15.15-13.56 8.84-8.21z"/>
      <path fill="#c09780" d="M200.54 126.17l-25.88 11.68 10.73-25.24 15.15 13.56z"/>
      <path fill="#c49886" d="M200.54 126.17l4.42 13.57-30.3-1.89 25.88-11.68z"/>
      <path fill="#ca9d89" d="M204.96 139.74l-3.16 8.84-27.14-10.73 30.3 1.89z"/>
      <path fill="#c39984" d="M200.54 126.17l11.04-15.46-17.35-6.31 6.31 21.77z"/>
      <path fill="#c39b8b" d="M211.58 110.71l8.21-11.67-25.56 5.36 17.35 6.31z"/>
      <path fill="#c0927e" d="M211.58 110.71l12.31 23.98-23.35-8.52 11.04-15.46z"/>
      <path fill="#be937e" d="M223.89 134.69l-18.93 5.05-4.42-13.57 23.35 8.52z"/>
      <path fill="#c69e8a" d="M204.96 139.74l11.99 21.15-15.15-12.31 3.16-8.84z"/>
      <path fill="#b9917d" d="M216.95 160.89l-16.41-3.48 1.26-8.83 15.15 12.31z"/>
      <path fill="#6d4b3f" d="M216.95 160.89l-1.58 7.57-14.83-11.05 16.41 3.48z"/>
      <path fill="#6b4739" d="M216.95 160.89l12.94 12.3-14.52-4.73 1.58-7.57z"/>
      <path fill="#ab8271" d="M229.89 173.19l2.52-29.97-15.46 17.67 12.94 12.3z"/>
      <path fill="#c29986" d="M232.41 143.22l-27.45-3.48 11.99 21.15 15.46-17.67z"/>
      <path fill="#ad7f6c" d="M232.41 143.22l-8.52-8.53-18.93 5.05 27.45 3.48z"/>
      <path fill="#76584c" d="M236.83 91.46l15.14 8.84-3.47 17.04-11.67-25.88z"/>
      <path fill="#b68c7d" d="M236.83 91.46l-6 22.72-11.04-15.14 17.04-7.58z"/>
      <path fill="#a78273" d="M248.5 117.34l-17.67-3.16 6-22.72 11.67 25.88z"/>
      <path fill="#bc917f" d="M230.83 114.18l-6.94 20.51-12.31-23.98 19.25 3.47z"/>
      <path fill="#bf9382" d="M230.83 114.18l-11.04-15.14-8.21 11.67 19.25 3.47z"/>
      <path d="M230.83 114.18c1.58.64 17 24.62 17 24.62l.63-21.46z" fill="#98705f"/>
      <path fill="#b28270" d="M232.41 143.22l-1.58-29.04-6.94 20.51 8.52 8.53z"/>
      <path fill="#aa7c67" d="M232.41 143.22l-1.58-29.04 17.04 24.62-15.46 4.42z"/>
      <path fill="#a77966" d="M247.87 138.8l-17.98 34.39 2.52-29.97 15.46-4.42z"/>
      <path fill="#946853" d="M247.87 138.8l13.89 17.35-15.47 5.37 1.58-22.72z"/>
      <path d="M246.3 161.52l-16.41 11.67s17.67-37.23 18-34.39-1.59 22.72-1.59 22.72z" fill="#9e735d"/>
      <path fill="#a27b67" d="M248.5 168.78l-2.21-7.26-16.4 11.67 18.61-4.41z"/>
      <path fill="#a47863" d="M261.76 156.15l-13.26 12.63-2.21-7.26 15.47-5.37z"/>
      <path fill="#9a6d58" d="M261.76 156.15l16.41 11.68-29.67.95 13.26-12.63z"/>
      <path fill="#aa7e6b" d="M278.17 167.83l-25.56 21.77-4.11-20.82 29.67-.95z"/>
      <path fill="#a47767" d="M268.38 182.66l9.79-14.83-25.56 21.77 15.77-6.94z"/>
      <path fill="#9f7b6b" d="M278.17 167.83l4.73 31.24-14.52-16.41 9.79-14.83z"/>
      <path fill="#a47966" d="M282.9 199.07l1.89 31.87-16.41-48.28 14.52 16.41z"/>
      <path fill="#946e5c" d="M282.9 199.07l14.2-18.62 6 17.36-20.2 1.26z"/>
      <path fill="#a17a69" d="M303.1 197.81l8.2-30.3-14.2 12.94 6 17.36z"/>
      <path fill="#b78e75" d="M303.1 197.81l14.2 2.84-2.21-19.25-11.99 16.41z"/>
      <path fill="#a17661" d="M303.1 197.81l11.99-16.41-3.79-13.89-8.2 30.3z"/>
      <path fill="#936754" d="M311.3 167.51l11.36 12.62-7.57 1.27-3.79-13.89z"/>
      <path fill="#ae836f" d="M322.66 180.13l-5.36 20.52-2.21-19.25 7.57-1.27z"/>
      <path fill="#a97b65" d="M317.3 200.65l-4.79 21.11-9.41-23.95 14.2 2.84z"/>
      <path fill="#9f7666" d="M312.51 221.76l-27.72 9.18 18.31-33.13 9.41 23.95z"/>
      <path d="M312.51 221.76c-1.17 2.73-3.12 21.07-3.12 21.07l-24.6-11.89z" fill="#906955"/>
      <path fill="#94715d" d="M309.39 242.82l-22.62 28.87-1.98-40.75 24.6 11.88z"/>
      <path fill="#95745e" d="M286.77 271.69l-19.65 23.62 17.67-64.37 1.98 40.75z"/>
      <path fill="#875a48" d="M309.39 242.82l15.99-11.7-12.87-9.36-3.12 21.06z"/>
      <path fill="#7d5e46" d="M231.78 308.57l.38 35.68 10.14-25.75-10.52-9.93z"/>
      <path fill="#42251b" d="M242.3 318.5l24.82-23.19-35.34 13.26 10.52 9.93z"/>
      <path fill="#533729" d="M242.3 318.5l14.04 15.6.39-15.6H242.3z"/>
      <path fill="#6b4534" d="M256.73 318.5l10.39-23.19-24.82 23.19h14.43z"/>
      <path fill="#8d654d" d="M256.34 334.1l-24.18 10.15 10.14-25.75 14.04 15.6z"/>
      <path class="portrait-146" d="M231.78 308.57c-1.57 1.35-10.94 19.68-10.94 19.68l6.63 3.9z"/>
      <path fill="#170e07" d="M227.47 332.15l4.69 12.1-.38-35.68-4.31 23.58z"/>
      <path fill="#2a1d1a" d="M220.84 328.25v29.65l6.63-25.75-6.63-3.9z"/>
      <path fill="#64453c" d="M232.16 344.25l-11.32 13.65 6.63-25.75 4.69 12.1z"/>
      <path fill="#866450" d="M232.16 344.25l-3.51 36.66-7.81-23.01 11.32-13.65z"/>
      <path fill="#c9a48e" d="M228.65 380.91l7.02 12.09 13.26-27.3-20.28 15.21z"/>
      <path fill="#9b7b68" d="M248.93 365.7l-16.77-21.45-3.51 36.66 20.28-15.21z"/>
      <path fill="#caa491" d="M248.93 365.7l12.48 35.11-25.74-7.81 13.26-27.3z"/>
      <path fill="#c6a290" d="M261.41 400.81l24.58.39-16.39-28.87-8.19 28.48z"/>
      <path fill="#c5a189" d="M269.6 372.33l-20.67-6.63 12.48 35.11 8.19-28.48z"/>
      <path class="portrait-156" d="M256.34 334.1l18.33 26.53-17.94-42.13-.39 15.6z"/>
      <path fill="#926b50" d="M256.34 334.1l-7.41 31.6-16.77-21.45 24.18-10.15z"/>
      <path fill="#967058" d="M274.67 360.63l-25.74 5.07 7.41-31.6 18.33 26.53z"/>
      <path fill="#b88c7b" d="M274.67 360.63l-5.07 11.7-20.67-6.63 25.74-5.07z"/>
      <path fill="#caa798" d="M269.6 372.33l16.39 28.87 22.23-4.69-38.62-24.18z"/>
      <path fill="#be9787" d="M308.22 396.51l-33.55-35.88-5.07 11.7 38.62 24.18z"/>
      <path fill="#7b4e3e" d="M267.12 295.31l16.52 47.37-26.91-24.18 10.39-23.19z"/>
      <path fill="#735241" d="M267.12 295.31l18.87 2.13 23.4-54.62-42.27 52.49z"/>
      <path fill="#865d46" d="M285.99 297.44l7.02 33.15-25.89-35.28 18.87 2.13z"/>
      <path fill="#8c644f" d="M293.01 330.59l-9.37 12.09-16.52-47.37 25.89 35.28z"/>
      <path fill="#936b53" d="M293.01 330.59l27.3-45.25-34.32 12.1 7.02 33.15z"/>
      <path fill="#88634c" d="M320.31 285.34l-10.92-42.52-23.4 54.62 34.32-12.1z"/>
      <path d="M309.39 242.83c2.73.39 29.26 9 29.26 9l-3.51 20.67z" fill="#966f5b"/>
      <path fill="#98735f" d="M309.39 242.82l25.74 29.65-14.82 12.87-10.92-42.52z"/>
      <path fill="#966e58" d="M325.38 231.12l13.27 20.68-29.26-8.98 15.99-11.7z"/>
      <path fill="#815946" d="M325.38 231.12l20.68-13.65L356.59 244l-31.21-12.88z"/>
      <path fill="#40291f" d="M346.06 217.47l8.58-15.21 1.95 41.74-10.53-26.53z"/>
      <path fill="#8f6b59" d="M356.59 244l-17.94 7.8-13.27-20.68L356.59 244z"/>
      <path fill="#846352" d="M356.59 244l6.24 33.93-24.18-26.13 17.94-7.8z"/>
      <path fill="#906d5b" d="M362.83 277.93l-27.7-5.46 3.52-20.67 24.18 26.13z"/>
      <path fill="#977865" d="M362.83 277.93l-22.23 21.46-5.47-26.92 27.7 5.46z"/>
      <path d="M340.6 299.39l-20.29-14.05s14.05-14.43 14.83-12.87 5.46 26.92 5.46 26.92z" fill="#9d7a64"/>
      <path fill="#99715d" d="M340.6 299.39l-24.58 17.16 4.29-31.21 20.29 14.05z"/>
      <path fill="#9b735e" d="M316.02 316.55l-23.01 14.04 27.3-45.25-4.29 31.21z"/>
      <path class="portrait-156" d="M283.64 342.68l-8.97 17.95-17.94-42.13 26.91 24.18z"/>
      <path fill="#8e634d" d="M283.64 342.68l26.14 31.21-35.11-13.26 8.97-17.95z"/>
      <path fill="#b28b76" d="M309.78 373.89l-1.56 22.62-33.55-35.88 35.11 13.26z"/>
      <path fill="#ae8e82" d="M308.22 396.51l37.45-37.05-35.89 14.43-1.56 22.62z"/>
      <path fill="#926e56" d="M309.78 373.89l15.6-42.13-32.37-1.17 16.77 43.3z"/>
      <path fill="#926c58" d="M309.78 373.89l-26.14-31.21 9.37-12.09 16.77 43.3z"/>
      <path fill="#967661" d="M325.38 331.76l15.22-32.37-24.58 17.16 9.36 15.21z"/>
      <path fill="#a4806c" d="M325.38 331.76l-32.37-1.17 23.01-14.04 9.36 15.21z"/>
      <path fill="#977465" d="M340.6 299.39l28.86 8.58-6.63-30.04-22.23 21.46z"/>
      <path fill="#2c2725" d="M362.83 277.93l11.31 21.85-4.68 8.19-6.63-30.04z"/>
      <path fill="#141410" d="M374.14 299.78l4.68 10.53-9.36-2.34 4.68-8.19z"/>
      <path fill="#2e2322" d="M378.82 310.31l-1.95 12.48-7.41-14.82 9.36 2.34z"/>
      <path fill="#94735f" d="M376.87 322.79l-21.84 25.35-14.43-48.75 36.27 23.4z"/>
      <path fill="#92745f" d="M376.87 322.79l-7.41-14.82-28.86-8.58 36.27 23.4z"/>
      <path fill="#9d7868" d="M355.03 348.14l-29.65-16.38 15.22-32.37 14.43 48.75z"/>
      <path fill="#9a7f6e" d="M355.03 348.14l-45.25 25.75 15.6-42.13 29.65 16.38z"/>
      <path d="M355 348.15l-9.36 11.31s-36.64 14.82-35.86 14.43S355 348.15 355 348.15z" fill="#8e736d"/>
      <path d="M235.67 393c.37.61 12.2 25.7 12.2 25.7l13.54-17.89z" fill="#181c20"/>
      <path fill="#1f1e25" d="M285.99 401.2l-21.55 21.76-3.03-22.15 24.58.39z"/>
      <path fill="#1e1d2a" d="M285.99 401.2l1.64 11.82 20.59-16.51-22.23 4.69z"/>
      <path fill="#201f24" d="M287.63 413.02l-23.19 9.94 21.55-21.76 1.64 11.82z"/>
      <path fill="#1f1f24" d="M264.44 422.96l-16.57-4.26 13.54-17.89 3.03 22.15z"/>
      <path fill="#1e2027" d="M264.44 422.96l13.73-.95 9.46-8.99-23.19 9.94z"/>
      <path fill="#1e1c23" d="M278.17 422.01l-13.26 17.51-.47-16.56 13.73-.95z"/>
      <path fill="#1b1c1f" d="M264.44 422.96l-16.57-4.26 17.04 20.82-.47-16.56z"/>
      <path fill="#85534f" d="M168.35 247.35l-1.42 4.73 5.68 7.1-4.26-11.83z"/>
      <path fill="#8d5049" d="M172.61 259.18l7.58-5.68-11.84-6.15 4.26 11.83z"/>
      <path fill="#94564c" d="M180.19 253.5l7.1-2.05-18.94-4.1 11.84 6.15z"/>
      <path fill="#8b4d43" d="M180.19 253.5l12.78 5.21-5.68-7.26-7.1 2.05z"/>
      <path fill="#874d41" d="M192.97 258.71l6.94-2.52-12.62-4.74 5.68 7.26z"/>
      <path fill="#71392f" d="M192.97 258.71l-13.26 1.42.48-6.63 12.78 5.21z"/>
      <path fill="#71372d" d="M179.71 260.13l-7.1-.95 7.58-5.68-.48 6.63z"/>
      <path fill="#5c2c2a" d="M192.97 258.71l4.73 2.84 2.21-5.36-6.94 2.52z"/>
      <path fill="#4d2920" d="M197.7 261.55l11.99-4.42-9.78-.94-2.21 5.36z"/>
      <path fill="#a26164" d="M197.7 261.55l-10.89 5.68 6.16-8.52 4.73 2.84z"/>
      <path fill="#936160" d="M197.7 261.55l-11.68 13.25 23.67-17.67-11.99 4.42z"/>
      <path fill="#a4555a" d="M186.81 267.23l-.79 7.57 11.68-13.25-10.89 5.68z"/>
      <path fill="#c19a99" d="M172.61 259.18l-.94 5.68 8.04-4.73-7.1-.95z"/>
      <path fill="#9a595d" d="M179.71 260.13l7.1 7.1 6.16-8.52-13.26 1.42z"/>
      <path fill="#ba777b" d="M186.81 267.23l-15.14-2.37 8.04-4.73 7.1 7.1z"/>
      <path fill="#a2524e" d="M186.81 267.23l-12.15 6.31 11.36 1.26.79-7.57z"/>
      <path fill="#ac545a" d="M174.66 273.54l-2.99-8.68 15.14 2.37-12.15 6.31z"/>
      <path fill="#976d52" d="M311.3 167.51l12.31-3-.95 15.62-11.36-12.62z"/>
      <path fill="#c39b88" d="M312.51 221.76l15.83-8.02-2.96 17.38-12.87-9.36z"/>
      <path fill="#c89d8c" d="M328.34 213.74l17.72 3.73-20.68 13.65 2.96-17.38z"/>
      <path d="M328.34 213.74l26.3-11.48-8.58 15.21s-18.67-3.25-17.72-3.73z" fill="#bd9281"/>
      <path fill="#b6887b" d="M354.64 202.26l1.63-14.08-10.89 7.1 9.26 6.98z"/>
      <path fill="#ae7765" d="M345.38 195.28l-17.04 18.46 26.3-11.48-9.26-6.98z"/>
      <path class="portrait-227" d="M356.32 188.13l2.65-15.65-13.46 22.88 10.81-7.23z"/>
      <path fill="#643323" d="M323.61 164.51l7.25-7.17 2.64 1.32-9.89 5.85z"/>
      <path fill="#794530" d="M333.5 158.66l4.62 10.56-14.51-4.71 9.89-5.85z"/>
      <path fill="#a37359" d="M338.12 169.22l-2.64 9.89-11.87-14.6 14.51 4.71z"/>
      <path fill="#9c7259" d="M335.48 179.11l-10.56-7.7-1.31-6.9 11.87 14.6z"/>
      <path fill="#926551" d="M323.61 164.51l1.31 6.9-2.26 8.72.95-15.62z"/>
      <path fill="#a17b6a" d="M333.5 158.66l9.46-5.5-9.02-1.54-.44 7.04z"/>
      <path fill="#8b624d" d="M333.94 151.62l-3.08 5.72 2.64 1.32.44-7.04z"/>
      <path fill="#764637" d="M335.48 179.11l-5.5 9.24-5.06-16.94 10.56 7.7z"/>
      <path fill="#82523d" d="M324.92 171.41l5.06 16.94-7.32-8.22 2.26-8.72z"/>
      <path fill="#b88d75" d="M333.5 158.66l19.35.66-9.89-6.16-9.46 5.5z"/>
      <path fill="#a9816a" d="M333.5 158.66l4.62 10.56 11.65-5.06-16.27-5.5z"/>
      <path fill="#936047" d="M349.77 164.16l3.08-4.84-19.35-.66 16.27 5.5z"/>
      <path fill="#af7c61" d="M352.85 159.32l1.98 13.19-5.06-8.35 3.08-4.84z"/>
      <path fill="#ae867c" d="M352.85 159.32l6.26 13.24-4.28-.05-1.98-13.19z"/>
      <path class="portrait-227" d="M354.83 172.51l-9.45 22.77 13.73-22.72-4.28-.05z"/>
      <path fill="#bb8f81" d="M338.12 169.22l4.84 12.53 6.81-17.59-11.65 5.06z"/>
      <path fill="#aa786c" d="M342.96 181.75l11.87-9.24-5.06-8.35-6.81 17.59z"/>
      <path fill="#b78277" d="M342.96 181.75l2.42 13.53 9.45-22.77-11.87 9.24z"/>
      <path fill="#aa7760" d="M342.96 181.75l-7.48-2.64 2.64-9.89 4.84 12.53z"/>
      <path fill="#865240" d="M329.98 188.35l-12.68 12.3 5.36-20.52 7.32 8.22z"/>
      <path class="portrait-247" d="M317.3 200.65l10.04 5.73-5.94 3.08-4.1-8.81z"/>
      <path fill="#af856b" d="M317.3 200.65l-4.79 21.11 8.89-12.3-4.1-8.81z"/>
      <path fill="#ac7e60" d="M321.4 209.46l-8.89 12.3 15.83-8.02-6.94-4.28z"/>
      <path fill="#b98a79" d="M327.34 206.38l1 7.36-6.94-4.28 5.94-3.08z"/>
      <path fill="#c8a78f" d="M327.34 206.38l10.12-9.67-9.12 17.03-1-7.36z"/>
      <path fill="#c2998d" d="M345.38 195.28l-7.92 1.43-9.12 17.03 17.04-18.46z"/>
      <path fill="#b17d68" d="M337.46 196.71l5.5-14.96 2.42 13.53-7.92 1.43z"/>
      <path class="portrait-247" d="M327.34 206.38l2.64-18.03-12.68 12.3 10.04 5.73z"/>
      <path fill="#99655a" d="M329.98 188.35l7.48 8.36-10.12 9.67 2.64-18.03z"/>
      <path fill="#8c5b47" d="M329.98 188.35l5.5-9.24 1.98 17.6-7.48-8.36z"/>
      <path fill="#7e4936" d="M335.48 179.11l7.48 2.64-5.5 14.96-1.98-17.6z"/>
      <path fill="#826258" d="M176.56 94.3l-13.36 1.46 4.68 3.05 8.68-4.51z"/>
      <path fill="#51403c" d="M163.2 95.76l8.48-6.15 4.88 4.69-13.36 1.46z"/>
      <path fill="#675251" d="M163.2 95.76l-8.47-9.32 16.95 3.17-8.48 6.15z"/>
      <path class="portrait-260" d="M154.73 86.44l11.44-12.51 5.51 15.68-16.95-3.17z"/>
      <path fill="#332623" d="M171.68 89.61l12.77-1.3-7.89 5.99-4.88-4.69z"/>
      <path fill="#2d2723" d="M166.17 73.93l18.28 14.38-12.77 1.3-5.51-15.68z"/>
      <path class="portrait-260" d="M154.73 86.44l8.71-16.2 2.73 3.69-11.44 12.51z"/>
      <path fill="#6b6969" d="M163.44 70.24l-9.09-5.9 13.86 4.09-4.77 1.81z"/>
      <path class="portrait-264" d="M167.07 65.02l-19.98-19.3 26.11 5.68-6.13 13.62z"/>
      <path fill="#928e8f" d="M173.2 51.4l-22.02-9.54-4.09 3.86 26.11 5.68z"/>
      <path fill="#353635" d="M167.07 65.02l18.39 3.41L173.2 51.4l-6.13 13.62z"/>
      <path fill="#3b3739" d="M185.46 68.43h-17.25l-1.14-3.41 18.39 3.41z"/>
      <path fill="#2d282b" d="M185.46 68.43l-19.29 5.5 2.04-5.5h17.25z"/>
      <path fill="#221c1b" d="M185.46 68.43l-1.01 19.88-18.28-14.38 19.29-5.5z"/>
      <path fill="#201a16" d="M185.46 68.43l23.16 17.48-24.17 2.4 1.01-19.88z"/>
      <path fill="#5b4037" d="M208.62 85.91l-6.82 9.03-17.35-6.63 24.17-2.4z"/>
      <path fill="#67493f" d="M208.62 85.91l5.17 5.24-11.99 3.79 6.82-9.03z"/>
      <path fill="#5b4339" d="M213.79 91.15l16.51-7.38-21.68 2.14 5.17 5.24z"/>
      <path fill="#493e3a" d="M230.3 83.77l17.38-9.42-16.17-1.93-1.21 11.35z"/>
      <path fill="#3e332f" d="M247.68 74.35l19.8-10.62-21 4.59 1.2 6.03z"/>
      <path fill="#2e2826" d="M267.48 63.73l22.69-2.17-15.21-5.55-7.48 7.72z"/>
      <path fill="#26201f" d="M290.17 61.56L309 56.01l-9.66-5.8-9.17 11.35z"/>
      <path fill="#392c29" d="M231.51 72.42l-22.89 13.49 21.68-2.14 1.21-11.35z"/>
      <path fill="#1e1915" d="M231.51 72.42l-46.05-3.99 23.16 17.48 22.89-13.49z"/>
      <path fill="#211f20" d="M231.51 72.42L206.4 45.63v15.68l25.11 11.11z"/>
      <path fill="#1a1717" d="M206.4 61.31l-20.94 7.12 46.05 3.99-25.11-11.11z"/>
      <path fill="#28292a" d="M185.46 68.43l-.3-29.32 21.24 22.2-20.94 7.12z"/>
      <path fill="#474749" d="M206.4 45.63l-8.93-26.08v22.69l8.93 3.39z"/>
      <path fill="#312f30" d="M197.47 42.24l8.93 19.07V45.63l-8.93-3.39z"/>
      <path fill="#2e2d2f" d="M197.47 42.24l-12.31-3.13 21.24 22.2-8.93-19.07z"/>
      <path fill="#3a393d" d="M185.16 39.11L173.2 51.4l12.26 17.03-.3-29.32z"/>
      <path fill="#5c5b5a" d="M185.16 39.11l-18.35-5.31 15.45.24 2.9 5.07z"/>
      <path fill="#565457" d="M173.2 51.4l3.75-11.09 8.21-1.2L173.2 51.4z"/>
      <path fill="#646466" d="M176.95 40.31l-10.14-6.51 18.35 5.31-8.21 1.2z"/>
      <path fill="#868487" d="M173.2 51.4l-6.39-17.6 6.76 8.2-.37 9.4z"/>
      <path fill="#59585b" d="M176.95 40.31L173.57 42l-.37 9.4 3.75-11.09z"/>
      <path fill="#6c6a6f" d="M182.26 34.04L179.37 21l12.79 8.45-9.9 4.59z"/>
      <path fill="#545054" d="M192.16 29.45l-7 9.66-2.9-5.07 9.9-4.59z"/>
      <path fill="#464649" d="M192.16 29.45l5.31 12.79-12.31-3.13 7-9.66z"/>
      <path fill="#4f4e4f" d="M192.16 29.45l5.31-9.9v22.69l-5.31-12.79z"/>
      <path fill="#6a6666" d="M192.16 29.45L181.3 17.62l16.17 1.93-5.31 9.9z"/>
      <path fill="#7d7a7c" d="M181.3 17.62L179.37 21l12.79 8.45-10.86-11.83z"/>
      <path fill="#383739" d="M197.47 19.55l20.28 6.28-11.35 19.8-8.93-26.08z"/>
      <path class="portrait-299" d="M217.75 25.83l13.76 46.59-25.11-26.79 11.35-19.8z"/>
      <path fill="#322f30" d="M231.51 72.42l-3.14-56.49 12.55 38.87-9.41 17.62z"/>
      <path fill="#1a1917" d="M217.75 25.83l9.41 15.21 4.35 31.38-13.76-46.59z"/>
      <path fill="#1d1b1a" d="M227.16 41.04l1.21-25.11 3.14 56.49-4.35-31.38z"/>
      <path fill="#4d464b" d="M228.37 15.93l-5.79 8.93 4.58 16.18 1.21-25.11z"/>
      <path fill="#3f3d3d" d="M222.58 24.86l-4.83.97 9.41 15.21-4.58-16.18z"/>
      <path fill="#8b8689" d="M222.58 24.86l-11.59-10.14 12.31 3.14-.72 7z"/>
      <path fill="#797678" d="M223.3 17.86l5.07-1.93-5.79 8.93.72-7z"/>
      <path fill="#767270" d="M210.99 14.72l6.76 11.11 4.83-.97-11.59-10.14z"/>
      <path fill="#2d2321" d="M246.48 68.32l-14.97 4.1 16.17 1.93-1.2-6.03z"/>
      <path fill="#1d1615" d="M246.48 68.32l-5.56-13.52-9.41 17.62 14.97-4.1z"/>
      <path fill="#211e19" d="M240.92 54.8l26.56 8.93-21 4.59-5.56-13.52z"/>
      <path fill="#423f3e" d="M240.92 54.8L237.06 14l12.8 13.04-8.94 27.76z"/>
      <path fill="#2a2523" d="M249.86 27.04l7.72 24.14-16.66 3.62 8.94-27.76z"/>
      <path fill="#1f1d19" d="M257.58 51.18l9.9 12.55-26.56-8.93 16.66-3.62z"/>
      <path fill="#282021" d="M257.58 51.18l17.38 4.83-7.48 7.72-9.9-12.55z"/>
      <path fill="#20201c" d="M257.58 51.18l3.38-19.8-11.1-4.34 7.72 24.14z"/>
      <path fill="#3f3c3c" d="M237.06 14L212.44 0l15.93 15.93 8.69-1.93z"/>
      <path fill="#433f3f" d="M237.06 14l3.86 40.8-12.55-38.87 8.69-1.93z"/>
      <path fill="#565350" d="M237.06 14l10.14-5.07 2.66 18.11L237.06 14z"/>
      <path fill="#4a4643" d="M247.2 8.93l13.76 22.45-11.1-4.34-2.66-18.11z"/>
      <path fill="#4d4a4d" d="M247.2 8.93l12.07 3.86 1.69 18.59L247.2 8.93z"/>
      <path fill="#6d6867" d="M259.27 12.79l-9.9-8.93-2.17 5.07 12.07 3.86z"/>
      <path fill="#83807f" d="M247.91 9.17l-10.38-2.66 12.55-2.41-2.17 5.07z"/>
      <path fill="#3c393b" d="M259.27 12.79l17.62 26.8-15.93-8.21-1.69-18.59z"/>
      <path class="portrait-324" d="M276.89 39.59l-19.31 11.59 3.38-19.8 15.93 8.21z"/>
      <path fill="#1f1918" d="M276.89 39.59l13.28 21.97-15.21-5.55 1.93-16.42z"/>
      <path fill="#1b1a17" d="M274.96 56.01l-17.38-4.83 19.31-11.59-1.93 16.42z"/>
      <path fill="#1f1a17" d="M299.34 50.21l-9.17 11.35-13.28-21.97 22.45 10.62z"/>
      <path fill="#302829" d="M276.89 39.59L275.2 9.41l9.66 21.49-7.97 8.69z"/>
      <path fill="#343231" d="M276.89 39.59l-5.07-13.52 3.38-16.66 1.69 30.18z"/>
      <path fill="#352f2c" d="M271.82 26.07l-12.55-13.28 17.62 26.8-5.07-13.52z"/>
      <path fill="#4b4549" d="M259.27 12.79l10.38 3.87 2.17 9.41-12.55-13.28z"/>
      <path fill="#434142" d="M269.65 16.66l5.55-7.25-3.38 16.66-2.17-9.41z"/>
      <path fill="#6e6c70" d="M269.65 16.66L255.89.97l19.31 8.44-5.55 7.25z"/>
      <path fill="#8a8984" d="M255.89.97l-6.52 2.89 7.97 1.69-1.45-4.58z"/>
      <path fill="#848a8c" d="M257.34 5.55l12.31 11.11L255.89.97l1.45 4.58z"/>
      <path class="portrait-336" d="M249.37 3.86l20.28 12.8-10.38-3.87-9.9-8.93z"/>
      <path fill="#231d1e" d="M284.86 30.9l14.48 19.31-22.45-10.62 7.97-8.69z"/>
      <path fill="#3f3736" d="M299.34 50.21l18.31-6.53L309 56.01l-9.66-5.8z"/>
      <path fill="#888685" d="M275.2 9.41l5.06-6.64-24.37-1.8 19.31 8.44z"/>
      <path fill="#3a3938" d="M280.26 2.77l4.6 28.13-9.66-21.49 5.06-6.64z"/>
      <path fill="#3a3a3a" d="M280.26 2.77l19.57 20.08-10.54 2.01-9.03-22.09z"/>
      <path fill="#302c29" d="M289.29 24.86l-4.43 6.04-4.6-28.13 9.03 22.09z"/>
      <path fill="#23231e" d="M289.29 24.86l10.05 25.35-14.48-19.31 4.43-6.04z"/>
      <path fill="#23211e" d="M299.83 22.85l-.49 27.36-10.05-25.35 10.54-2.01z"/>
      <path fill="#25201e" d="M299.83 22.85l24.35 6.78-24.84 20.58.49-27.36z"/>
      <path fill="#2a2624" d="M324.18 29.63l-6.53 14.05-18.31 6.53 24.84-20.58z"/>
      <path fill="#211e1d" d="M317.65 43.68l20.84-4.76-14.31-9.29-6.53 14.05z"/>
      <path fill="#373436" d="M280.26 2.77l27.61 10.04-8.04 10.04-19.57-20.08z"/>
      <path fill="#3d3436" d="M307.87 12.81l-8.04 10.04 24.35 6.78-16.31-16.82z"/>
      <path fill="#3f3934" d="M324.18 29.63l.25-9.54-16.56-7.28 16.31 16.82z"/>
      <path fill="#413734" d="M324.43 20.09l7.03 7.03-7.28 2.51.25-9.54z"/>
      <path fill="#2c2a27" d="M331.46 27.12l7.03 11.8-14.31-9.29 7.28-2.51z"/>
      <path fill="#5c4841" d="M247.68 74.35l-10.85 17.11-6.53-7.69 17.38-9.42z"/>
      <path fill="#8b6d5e" d="M236.83 91.46l-6.53-7.69-16.51 7.38 23.04.31z"/>
      <path fill="#524440" d="M236.83 91.46l23.1-12.64-12.25-4.47-10.85 17.11z"/>
      <path fill="#493e3c" d="M259.93 78.82l7.55-15.09-19.8 10.62 12.25 4.47z"/>
      <path fill="#443938" d="M267.48 63.73l16.79 6.31-17.57 1.5.78-7.81z"/>
      <path fill="#463938" d="M266.7 71.54l-6.77 7.28 7.55-15.09-.78 7.81z"/>
      <path fill="#3b3136" d="M284.27 70.04l5.9-8.48-22.69 2.17 16.79 6.31z"/>
      <path fill="#4d4242" d="M290.17 61.56l13.18 10.49-19.08-2.01 5.9-8.48z"/>
      <path fill="#453c3c" d="M303.35 72.05l-1.76-9.04-11.42-1.45 13.18 10.49z"/>
      <path fill="#36312f" d="M301.59 63.01l7.41-7-18.83 5.55 11.42 1.45z"/>
      <path fill="#3f3233" d="M309 56.01l-5.65 16.04-1.76-9.04 7.41-7z"/>
      <path fill="#4d4345" d="M309 56.01l7.15 18.55-12.8-2.51L309 56.01z"/>
      <path fill="#4b403f" d="M316.15 74.56l1.5-30.88L309 56.01l7.15 18.55z"/>
      <path fill="#5e5e61" d="M317.65 43.68l19.83 7.03-2.26-7.78-17.57.75z"/>
      <path fill="#413f45" d="M335.22 42.93l3.27-4.01-20.84 4.76 17.57-.75z"/>
      <path fill="#5a5351" d="M324.43 20.09l31.37 8.54-24.34-1.51-7.03-7.03z"/>
      <path fill="#3f383a" d="M355.8 28.63l-17.31 10.29-7.03-11.8 24.34 1.51z"/>
      <path fill="#3e3938" d="M355.8 28.63l17.07 23.34-34.38-13.05 17.31-10.29z"/>
      <path fill="#534c4c" d="M372.87 51.97l-1-11.55-16.07-11.79 17.07 23.34z"/>
      <path fill="#302b2c" d="M372.87 51.97l21.83 32.62-25.6-18.57 3.77-14.05z"/>
      <path fill="#383638" d="M369.1 66.02l-30.61-27.1 34.38 13.05-3.77 14.05z"/>
      <path fill="#433f42" d="M335.22 42.93l33.88 23.09-30.61-27.1-3.27 4.01z"/>
      <path fill="#3a3738" d="M337.48 50.71l22.84 32.63-42.67-39.66 19.83 7.03z"/>
      <path fill="#1e1f1d" d="M317.65 43.68l16.07 25.35 26.6 14.31-42.67-39.66z"/>
      <path fill="#3a3737" d="M333.72 69.03l-13.31-8.78-2.76-16.57 16.07 25.35z"/>
      <path fill="#463d3e" d="M320.41 60.25l-4.26 14.31 1.5-30.88 2.76 16.57z"/>
      <path fill="#3b3736" d="M360.32 83.34l-8.78-24.85-14.06-7.78 22.84 32.63z"/>
      <path fill="#47464a" d="M351.54 58.49l-16.32-15.56 2.26 7.78 14.06 7.78z"/>
      <path fill="#312f33" d="M351.54 58.49l25.34 31.63-7.78-24.1-17.56-7.53z"/>
      <path fill="#353436" d="M351.54 58.49l-16.32-15.56 33.88 23.09-17.56-7.53z"/>
      <path fill="#272223" d="M376.88 90.12l-16.56-6.78-8.78-24.85 25.34 31.63z"/>
      <path fill="#221e1a" d="M394.7 84.59l13.31 35.39-23.6-29.36 10.29-6.03z"/>
      <path fill="#292122" d="M384.41 90.62l-15.31-24.6 25.6 18.57-10.29 6.03z"/>
      <path fill="#1d1a1c" d="M384.41 90.62l-7.53-.5-7.78-24.1 15.31 24.6z"/>
      <path fill="#23201e" d="M376.88 90.12l3.77 24.59-20.33-31.37 16.56 6.78z"/>
      <path fill="#11110f" d="M376.88 90.12l30.62 54.21-23.09-53.71-7.53-.5z"/>
      <path fill="#17100e" d="M407.5 144.33l.51-24.35-23.6-29.36 23.09 53.71z"/>
      <path fill="#20130d" d="M408.01 119.98l3.76 29.12-4.27-4.77.51-24.35z"/>
      <path fill="#1d1916" d="M380.65 114.71l26.85 29.62-30.62-54.21 3.77 24.59z"/>
      <path fill="#100c0d" d="M380.65 114.71l-20.83-14.3.5-17.07 20.33 31.37z"/>
      <path fill="#1a191c" d="M359.82 100.41l-39.41-40.16 39.91 23.09-.5 17.07z"/>
      <path fill="#2b292a" d="M359.82 100.41l-43.67-25.85 4.26-14.31 39.41 40.16z"/>
      <path fill="#393333" d="M266.7 71.54l34.14 24.85-16.57-26.35-17.57 1.5z"/>
      <path fill="#524240" d="M251.97 100.3l7.96-21.48-23.1 12.64 15.14 8.84z"/>
      <path fill="#3f3735" d="M259.93 78.82l40.91 17.57-34.14-24.85-6.77 7.28z"/>
      <path fill="#353132" d="M300.84 96.39l-24.35 6.78-16.56-24.35 40.91 17.57z"/>
      <path fill="#2f2928" d="M276.49 103.17l-17.31-.5.75-23.85 16.56 24.35z"/>
      <path fill="#3e3430" d="M259.18 102.67l-7.21-2.37 7.96-21.48-.75 23.85z"/>
      <path fill="#473834" d="M259.18 102.67l-10.68 14.67 3.47-17.04 7.21 2.37z"/>
      <path fill="#3a2e2e" d="M259.18 102.67l3.51 38.9-14.19-24.23 10.68-14.67z"/>
      <path fill="#4d3933" d="M262.69 141.57l-14.82-2.77.63-21.46 14.19 24.23z"/>
      <path fill="#53372e" d="M262.69 141.57l-.93 14.58-13.89-17.35 14.82 2.77z"/>
      <path fill="#56352b" d="M262.69 141.57l15.48 26.26-16.41-11.68.93-14.58z"/>
      <path fill="#443532" d="M278.17 167.83l12.38 9.38-7.65 21.86-4.73-31.24z"/>
      <path fill="#43312c" d="M290.55 177.21l6.55 3.24-14.2 18.62 7.65-21.86z"/>
      <path fill="#a17d6c" d="M303.1 197.81l-20.2 1.26 1.89 31.87 18.31-33.13z"/>
      <path fill="#2a221f" d="M276.49 103.17l-13.8 38.4-3.51-38.9 17.31.5z"/>
      <path fill="#312524" d="M276.49 103.17l1.68 64.66-15.48-26.26 13.8-38.4z"/>
      <path fill="#2c2422" d="M278.17 167.83l33.13-.32-20.75 9.7-12.38-9.38z"/>
      <path fill="#3a2621" d="M290.55 177.21l6.55 3.24 14.2-12.94-20.75 9.7z"/>
      <path fill="#2c2320" d="M311.3 167.51l-34.81-64.34 1.68 64.66 33.13-.32z"/>
      <path fill="#201819" d="M276.49 103.17l40.18 34.29-5.37 30.05-34.81-64.34z"/>
      <path fill="#1c1717" d="M316.67 137.46l-15.83-41.07-24.35 6.78 40.18 34.29z"/>
      <path fill="#271c18" d="M316.67 137.46l6.94 27.05-12.31 3 5.37-30.05z"/>
      <path fill="#1d1513" d="M316.67 137.46l14.19 19.88-7.25 7.17-6.94-27.05z"/>
      <path class="portrait-418" d="M316.67 137.46l17.27 14.16-3.08 5.72-14.19-19.88z"/>
      <path class="portrait-418" d="M333.94 151.62l-15.39-41.51-1.88 27.35 17.27 14.16z"/>
      <path fill="#121211" d="M318.55 110.11l-17.71-13.72 15.83 41.07 1.88-27.35z"/>
      <path fill="#2a2727" d="M318.55 110.11l-15.2-38.06-2.51 24.34 17.71 13.72z"/>
      <path fill="#312e2c" d="M300.84 96.39l2.51-24.34-19.08-2.01 16.57 26.35z"/>
      <path fill="#393435" d="M318.55 110.11l-2.4-35.55-12.8-2.51 15.2 38.06z"/>
      <path fill="#29272a" d="M316.15 74.56l23.9 52.04-5.85-35.69-18.05-16.35z"/>
      <path fill="#302d30" d="M340.05 126.6l-17.12-21.7-6.78-30.34 23.9 52.04z"/>
      <path class="portrait-299" d="M322.93 104.9l-4.38 5.21-2.4-35.55 6.78 30.34z"/>
      <path fill="#171718" d="M322.93 104.9l17.74 35.48-22.12-30.27 4.38-5.21z"/>
      <path fill="#121210" d="M340.67 140.38l-6.73 11.24-15.39-41.51 22.12 30.27z"/>
      <path fill="#181718" d="M340.67 140.38l-.62-13.78-17.12-21.7 17.74 35.48z"/>
      <path fill="#151516" d="M340.05 126.6l16.48 5.43-22.33-41.12 5.85 35.69z"/>
      <path fill="#181817" d="M356.53 132.03l3.29-31.62-25.62-9.5 22.33 41.12z"/>
      <path fill="#262528" d="M334.2 90.91l-18.05-16.35 43.67 25.85-25.62-9.5z"/>
      <path fill="#151211" d="M356.53 132.03l24.12-17.32-20.83-14.3-3.29 31.62z"/>
      <path fill="#1a171a" d="M356.53 132.03l-15.86 8.35-.62-13.78 16.48 5.43z"/>
      <path class="portrait-433" d="M340.67 140.38l12.18 18.94-9.89-6.16-2.29-12.78z"/>
      <path fill="#141311" d="M340.67 140.38l-6.73 11.24 9.02 1.54-2.29-12.78z"/>
      <path class="portrait-433" d="M352.85 159.32l3.68-27.29-15.86 8.35 12.18 18.94z"/>
      <path fill="#171516" d="M356.53 132.03l11.48 31.73-15.16-4.44 3.68-27.29z"/>
      <path fill="#151515" d="M368.01 163.76l-8.9 8.8-6.26-13.24 15.16 4.44z"/>
      <path fill="#181618" d="M368.01 163.76l11.28-36.74-22.76 5.01 11.48 31.73z"/>
      <path fill="#0c0b0c" d="M379.29 127.02l1.36-12.31-24.12 17.32 22.76-5.01z"/>
      <path fill="#110d0d" d="M379.29 127.02l28.21 17.31-26.85-29.62-1.36 12.31z"/>
      <path fill="#1a1108" d="M407.5 144.33l-6.93 33.2 11.2-28.43-4.27-4.77z"/>
      <path fill="#070c09" d="M400.57 177.53l-21.28-50.51 28.21 17.31-6.93 33.2z"/>
      <path fill="#141112" d="M368.01 163.76l32.56 13.77-21.28-50.51-11.28 36.74z"/>
      <path class="portrait-324" d="M400.57 177.53l-12.1 19.2-20.46-32.97 32.56 13.77z"/>
      <path fill="#161515" d="M388.47 196.73l-2.72 22.34-26.92-48.01 29.64 25.67z"/>
      <path fill="#191a19" d="M388.47 196.73l-20.46-32.97-8.9 8.8 29.36 24.17z"/>
      <path fill="#1a1615" d="M385.75 219.07l-31.11-16.81 1.63-14.08 29.48 30.89z"/>
      <path fill="#1a1a17" d="M385.75 219.07l-26.64-46.51-2.84 15.62 29.48 30.89z"/>
      <path fill="#181414" d="M385.75 219.07l-24.62-1.26-6.49-15.55 31.11 16.81z"/>
      <path fill="#161311" d="M361.13 217.81L356.59 244l-1.95-41.74 6.49 15.55z"/>
      <path fill="#111412" d="M356.59 244l29.16-24.93-24.62-1.26-4.54 26.19z"/>
      <path fill="#1c1c1b" d="M385.75 219.07l-18.15 27.97-11.01-3.04 29.16-24.93z"/>
      <path fill="#151011" d="M367.6 247.04l-5.64 10.64-5.37-13.68 11.01 3.04z"/>
      <path fill="#0d090f" d="M361.96 257.68l.87 20.25-6.24-33.93 5.37 13.68z"/>
      <path fill="#32366d" d="M180.66 299.42l-10.87 7.99 3.32 21.99 7.55-29.98z"/>
      <path fill="#32428a" d="M173.11 329.4l-6.93-10.85 3.61-11.14 3.32 21.99z"/>
      <path fill="#303671" d="M173.11 329.4l-9.95 8.43 3.02-19.28 6.93 10.85z"/>
      <path fill="#303c81" d="M163.16 337.83l8.44 9.94-10.85-1.8 2.41-8.14z"/>
      <path fill="#292c5b" d="M171.6 347.77l1.51-18.37-9.95 8.43 8.44 9.94z"/>
      <path fill="#343f81" d="M171.6 347.77l-6.93 12.96-3.92-14.76 10.85 1.8z"/>
      <path fill="#2b346e" d="M164.67 360.73l14.16 8.73-7.23-21.69-6.93 12.96z"/>
      <path fill="#04080b" d="M173.11 329.4l21.43-17.99-13.88-11.99-7.55 29.98z"/>
      <path fill="#2b3169" d="M164.67 360.73l8.74 17.77 5.42-9.04-14.16-8.73z"/>
      <path fill="#232f60" d="M173.41 378.5l17.47 6.02-12.05-15.06-5.42 9.04z"/>
      <path fill="#212e5b" d="M190.88 384.52l-17.47-6.02 15.36 15.96 2.11-9.94z"/>
      <path fill="#2d3b77" d="M190.88 384.52l7.83 11.75 12.65-4.52-20.48-7.23z"/>
      <path fill="#272e57" d="M198.71 396.27l-9.94-1.81 2.11-9.94 7.83 11.75z"/>
      <path class="portrait-466" d="M198.71 396.27l10.85 12.96-20.79-14.77 9.94 1.81z"/>
      <path class="portrait-466" d="M209.56 409.23l1.8-17.48-12.65 4.52 10.85 12.96z"/>
      <path fill="#2a3a76" d="M211.36 391.75l19.58 17.48 4.73-16.23-24.31-1.25z"/>
      <path fill="#242f63" d="M235.67 393l-4.73 16.23 16.93 9.47-12.2-25.7z"/>
      <path fill="#252c5b" d="M230.94 409.23h-21.38l1.8-17.48 19.58 17.48z"/>
      <path fill="#212b5a" d="M230.94 409.23l5.12 14.15-26.5-14.15h21.38z"/>
      <path fill="#252e60" d="M236.06 423.38l11.81-4.68-16.93-9.47 5.12 14.15z"/>
      <path fill="#252955" d="M236.06 423.38l28.85 16.14-17.04-20.82-11.81 4.68z"/>
      <path fill="#1d2747" d="M264.91 439.52l18.75-15.83-5.49-1.68-13.26 17.51z"/>
      <path fill="#384277" d="M283.66 423.69l3.97-10.67-9.46 8.99 5.49 1.68z"/>
      <path fill="#313e7a" d="M283.66 423.69l29.52-21.39-25.55 10.72-3.97 10.67z"/>
      <path fill="#404680" d="M287.63 413.02l25.55-10.72-4.96-5.79-20.59 16.51z"/>
      <path fill="#283967" d="M283.66 423.69l35.24-4.52-5.72-16.87-29.52 21.39z"/>
      <path fill="#2f3874" d="M318.9 419.17l26.21-15.67-31.93-1.2 5.72 16.87z"/>
      <path fill="#293576" d="M345.11 403.5l22.29 11.45-48.5 4.22 26.21-15.67z"/>
      <path fill="#323f7c" d="M345.11 403.5l37.36-3.01-15.07 14.46-22.29-11.45z"/>
      <path fill="#323473" d="M382.47 400.49l27.11-10.54-13.86 18.07-13.25-7.53z"/>
      <path fill="#27305b" d="M395.72 408.02l-28.32 6.93 15.07-14.46 13.25 7.53z"/>
      <path fill="#2c3670" d="M409.58 389.95l22.89-17.78-14.46 19.28-8.43-1.5z"/>
      <path fill="#253162" d="M418.01 391.45l-22.29 16.57 13.86-18.07 8.43 1.5z"/>
      <path fill="#0e1328" d="M395.72 408.02l33.44-10.84-11.15-5.73-22.29 16.57z"/>
      <path fill="#1a2347" d="M429.16 397.18l3.31-25.01-14.46 19.28 11.15 5.73z"/>
      <path fill="#161f44" d="M429.16 397.18l21.99-38.56 3.31 27.41-25.3 11.15z"/>
      <path fill="#171f45" d="M454.46 386.03l23.8-10.54-18.38-6.03-5.42 16.57z"/>
      <path fill="#121d43" d="M459.88 369.46l-8.73-10.84 3.31 27.41 5.42-16.57z"/>
      <path fill="#233166" d="M451.15 358.62l-18.68 13.55-3.31 25.01 21.99-38.56z"/>
      <path fill="#313f80" d="M451.15 358.62l-9.2.63-9.48 12.92 18.68-13.55z"/>
      <path fill="#2e3d78" d="M451.15 358.62l-.19-20.79-9.01 21.42 9.2-.63z"/>
      <path fill="#25326c" d="M450.96 337.83l9.96 12.03-9.77 8.76-.19-20.79z"/>
      <path fill="#040c1f" d="M361.96 257.68l16.64 15.36-12.81-7.18-3.83-8.18z"/>
      <path fill="#1d2142" d="M361.96 257.68l3.83 8.18-2.96 12.07-.87-20.25z"/>
      <path fill="#1e2c60" d="M365.79 265.86l19.79 25.81-6.98-18.63-12.81-7.18z"/>
      <path fill="#181e42" d="M362.83 277.93l22.75 13.74-19.79-25.81-2.96 12.07z"/>
      <path fill="#232d60" d="M385.58 291.67l-6.01 10.67-16.74-24.41 22.75 13.74z"/>
      <path fill="#1c203f" d="M379.57 302.34l-.75 7.97-15.99-32.38 16.74 24.41z"/>
      <path fill="#203472" d="M378.6 273.04l15.33 16.3-8.35 2.33-6.98-18.63z"/>
      <path fill="#182965" d="M393.93 289.34l9.7 18.82-18.05-16.49 8.35-2.33z"/>
      <path fill="#273678" d="M403.63 308.16l-24.06-5.82 6.01-10.67 18.05 16.49z"/>
      <path fill="#233674" d="M379.57 302.34l20.57 20.76 3.49-14.94-24.06-5.82z"/>
      <path fill="#283878" d="M403.63 308.16l16.1 22.7-19.59-7.76 3.49-14.94z"/>
      <path fill="#283158" d="M385.75 219.07l19.24 18.65-20.38-5.62 1.14-13.03z"/>
      <path fill="#0d0f1b" d="M384.61 232.1l-17.01 14.94 18.15-27.97-1.14 13.03z"/>
      <path fill="#393d7e" d="M384.61 232.1l14.56 17.46 5.82-11.84-20.38-5.62z"/>
      <path fill="#050a19" d="M399.17 249.56l-31.57-2.52 17.01-14.94 14.56 17.46z"/>
      <path fill="#070a14" d="M399.17 249.56l-37.21 8.12 5.64-10.64 31.57 2.52z"/>
      <path fill="#070816" d="M399.17 249.56l-20.57 23.48-16.64-15.36 37.21-8.12z"/>
      <path fill="#050d1f" d="M399.17 249.56l-5.24 39.78-15.33-16.3 20.57-23.48z"/>
      <path fill="#0a0e21" d="M399.17 249.56l20.56 26.97-25.8 12.81 5.24-39.78z"/>
      <path fill="#0c1128" d="M419.73 276.53l19.41 22.12-45.21-9.31 25.8-12.81z"/>
      <path fill="#0a0e22" d="M403.63 308.16l35.51-9.51-45.21-9.31 9.7 18.82z"/>
      <path class="portrait-515" d="M439.14 298.65l12.03 23.48-47.54-13.97 35.51-9.51z"/>
      <path fill="#0e142d" d="M451.17 322.13l-.21 15.7-47.33-29.67 47.54 13.97z"/>
      <path fill="#141a46" d="M419.73 330.86l31.23 6.97-47.33-29.67 16.1 22.7z"/>
      <path fill="#243164" d="M400.14 323.1l-23.27-.31 1.95-12.48 21.32 12.79z"/>
      <path fill="#1c2961" d="M400.14 323.1l-21.32-12.79.75-7.97 20.57 20.76z"/>
      <path fill="#1e2a5f" d="M376.87 322.79l-2.75 29.45 26.02-29.14-23.27-.31z"/>
      <path fill="#191d42" d="M374.12 352.24l-19.09-4.1 21.84-25.35-2.75 29.45z"/>
      <path fill="#1e2957" d="M374.12 352.24l-28.45 7.22 9.36-11.32 19.09 4.1z"/>
      <path class="portrait-523" d="M374.12 352.24l41.68-1.53-15.66-27.61-26.02 29.14z"/>
      <path fill="#2a387c" d="M415.8 350.71l3.93-19.85-19.59-7.76 15.66 27.61z"/>
      <path fill="#26397e" d="M415.8 350.71l35.16-12.88-31.23-6.97-3.93 19.85z"/>
      <path fill="#1f2f69" d="M415.8 350.71l26.15 8.54 9.01-21.42-35.16 12.88z"/>
      <path fill="#222c66" d="M415.8 350.71l16.67 21.46 9.48-12.92-26.15-8.54z"/>
      <path fill="#212c64" d="M415.8 350.71l-6.22 39.24 22.89-17.78-16.67-21.46z"/>
      <path fill="#242d67" d="M415.8 350.71l-33.33 49.78 27.11-10.54 6.22-39.24z"/>
      <path fill="#20285f" d="M382.47 400.49l-8.35-48.25 41.68-1.53-33.33 49.78z"/>
      <path fill="#1e285b" d="M382.47 400.49l-25.38-25.38 17.03-22.87 8.35 48.25z"/>
      <path fill="#1c2253" d="M357.09 375.11l-11.42-15.65 28.45-7.22-17.03 22.87z"/>
      <path fill="#222c65" d="M357.09 375.11l-48.87 21.4 37.45-37.05 11.42 15.65z"/>
      <path fill="#202c60" d="M357.09 375.11l-43.91 27.19-4.96-5.79 48.87-21.4z"/>
      <path fill="#283574" d="M357.09 375.11l-11.98 28.39-31.93-1.2 43.91-27.19z"/>
      <path fill="#21306e" d="M345.11 403.5l11.98-28.39 25.38 25.38-37.36 3.01z"/>
      <path fill="#243567" d="M404.99 237.72l20.4 21.18-26.22-9.34 5.82-11.84z"/>
      <path fill="#1d2553" d="M425.39 258.9l-5.66 17.63-20.56-26.97 26.22 9.34z"/>
      <path fill="#222c5c" d="M425.39 258.9l13.75 39.75-19.41-22.12 5.66-17.63z"/>
      <path class="portrait-540" d="M425.39 258.9L454 296.26l-14.86 2.39-13.75-39.75z"/>
      <path fill="#293970" d="M454 296.26l-2.83 25.87-12.03-23.48 14.86-2.39z"/>
      <path fill="#5175bc" d="M454 296.26l25.25 27.94H467.8L454 296.26z"/>
      <path fill="#384e94" d="M467.8 324.2l-16.63-2.07 2.83-25.87 13.8 27.94z"/>
      <path fill="#5776bd" d="M467.8 324.2l25.25 24.57-13.8-24.57H467.8z"/>
      <path fill="#33386d" d="M467.8 324.2l-16.84 13.63.21-15.7 16.63 2.07z"/>
      <path fill="#2a3a78" d="M467.8 324.2l-6.88 25.66-9.96-12.03 16.84-13.63z"/>
      <path fill="#344387" d="M460.92 349.86l32.13-1.09-25.25-24.57-6.88 25.66z"/>
      <path class="portrait-540" d="M493.05 348.77l-3.03 16.5-29.1-15.41 32.13-1.09z"/>
      <path fill="#18234d" d="M459.88 369.46l1.04-19.6-9.77 8.76 8.73 10.84z"/>
      <path fill="#253163" d="M459.88 369.46l30.14-4.19-29.1-15.41-1.04 19.6z"/>
      <path fill="#1c2954" d="M490.02 365.27l-11.76 10.22-18.38-6.03 30.14-4.19z"/>
      <path fill="#020506" d="M173.11 329.4l31.13-2.81-9.7-15.18-21.43 17.99z"/>
      <path fill="#090b0f" d="M204.24 326.59l10.5-15.81-20.2.63 9.7 15.18z"/>
      <path class="portrait-146" d="M214.74 310.78l6.1 17.47 10.94-19.68-17.04 2.21z"/>
      <path fill="#070c1a" d="M220.84 328.25l-27.23 26.59 10.63-28.25 16.6 1.66z"/>
      <path fill="#09101b" d="M204.24 326.59l10.5-15.81 6.1 17.47-16.6-1.66z"/>
      <path fill="#0e1429" d="M220.84 357.9l-27.23-3.06 27.23-26.59v29.65z"/>
      <path fill="#0b1229" d="M193.61 354.84l-22.01-7.07 32.64-21.18-10.63 28.25z"/>
      <path fill="#050b0e" d="M171.6 347.77l32.64-21.18-31.13 2.81-1.51 18.37z"/>
      <path fill="#0b142b" d="M193.61 354.84l-14.78 14.62-7.23-21.69 22.01 7.07z"/>
      <path fill="#0e1430" d="M193.61 354.84l-2.73 29.68-12.05-15.06 14.78-14.62z"/>
      <path fill="#0c122d" d="M190.88 384.52l29.96-26.62-27.23-3.06-2.73 29.68z"/>
      <path fill="#23295e" d="M228.65 380.91l-37.77 3.61 29.96-26.62 7.81 23.01z"/>
      <path fill="#273265" d="M228.65 380.91l-17.29 10.84-20.48-7.23 37.77-3.61z"/>
      <path fill="#2f3d74" d="M228.65 380.91l7.02 12.09-24.31-1.25 17.29-10.84z"/>
      <path fill="#4b67af" d="M160.75 345.97l-63.23 28.37 17.57 10.2 45.66-38.57z"/>
      <path fill="#3b5da4" d="M115.09 384.54l49.58-23.81-3.92-14.76-45.66 38.57z"/>
      <path fill="#283a73" d="M115.09 384.54l-.57 83.31-8.5-3.96 9.07-79.35z"/>
      <path fill="#364d99" d="M115.09 384.54l-17.57-10.2 8.13 85.61.37 3.94 9.07-79.35z"/>
      <path fill="#475dac" d="M97.52 374.34l-13.6 29.47 22.1 60.08-8.5-89.55z"/>
      <path fill="#31448c" d="M83.92 403.81l-22.1 41.37 8.5 12.47 13.6-53.84z"/>
      <path fill="#303878" d="M83.92 403.81l-3.97 47.04 26.07 13.04-22.1-60.08z"/>
      <path fill="#131e4b" d="M79.95 450.85l-9.63 6.8 13.6-53.84-3.97 47.04z"/>
      <path fill="#3b4c99" d="M61.82 445.18l-11.91 2.27 34.01-43.64-22.1 41.37z"/>
      <path fill="#354690" d="M114.52 467.85l50.15-107.12-49.58 23.81-.57 83.31z"/>
      <path fill="#243672" d="M106.02 463.89L93.55 586.87l20.97-119.02-8.5-3.96z"/>
      <path class="portrait-575" d="M121.32 582.9l-5.66 111.65-22.11-107.68 27.77-3.97z"/>
      <path fill="#1e2f65" d="M93.55 586.87l.57 104.84 21.54 2.84-22.11-107.68z"/>
      <path class="portrait-577" d="M79.95 450.85l13.6 136.02 12.47-122.98-26.07-13.04z"/>
      <path fill="#212858" d="M70.32 457.65l-11.34 30.04 34.57 99.18-23.23-129.22z"/>
      <path fill="#131e45" d="M70.32 457.65l9.63-6.8 13.6 136.02-23.23-129.22z"/>
      <path fill="#3c519b" d="M58.98 487.69l2.84-42.51 8.5 12.47-11.34 30.04z"/>
      <path fill="#2b2d60" d="M49.91 447.45l9.07 40.24 2.84-42.51-11.91 2.27z"/>
      <path fill="#222b63" d="M49.91 447.45l-14.46 79.66 23.53-39.42-9.07-40.24z"/>
      <path fill="#1a1b44" d="M58.98 487.69l.16 42.49-23.69-3.07 23.53-39.42z"/>
      <path fill="#1d2755" d="M59.14 530.18l26.15 77.22-26.31-119.71.16 42.49z"/>
      <path fill="#10193f" d="M85.29 607.4l8.26-20.53-34.57-99.18L85.29 607.4z"/>
      <path fill="#16214d" d="M35.45 527.11l49.84 80.29-26.15-77.22-23.69-3.07z"/>
      <path fill="#21316f" d="M35.45 527.11l-8.3.61-7.39 32.92 15.69-33.53z"/>
      <path fill="#202a5a" d="M35.45 527.11l17.85 83.37 20.92 1.85-38.77-85.22z"/>
      <path fill="#1c2554" d="M74.22 612.33l11.07-4.93-49.84-80.29 38.77 85.22z"/>
      <path fill="#0e1532" d="M85.29 607.4l8.83 84.31-.57-104.84-8.26 20.53z"/>
      <path fill="#19274d" d="M53.3 610.48l30.15 47.38-9.23-45.53-20.92-1.85z"/>
      <path fill="#141f4a" d="M83.45 657.86l1.84-50.46-11.07 4.93 9.23 45.53z"/>
      <path fill="#0a0c23" d="M83.45 657.86l10.67 33.85-8.83-84.31-1.84 50.46z"/>
      <path fill="#0a112c" d="M53.3 610.48l-.93 10.77 31.08 36.61-30.15-47.38z"/>
      <path fill="#0b1331" d="M52.37 621.25l-23.99-43.69 24.92 32.92-.93 10.77z"/>
      <path fill="#1c2557" d="M28.38 577.56l7.07-50.45 17.85 83.37-24.92-32.92z"/>
      <path fill="#1f2d68" d="M28.38 577.56l-8.62-16.92 15.69-33.53-7.07 50.45z"/>
      <path fill="#273b77" d="M28.38 577.56l-8 28.61-.62-45.53 8.62 16.92z"/>
      <path fill="#252e69" d="M20.38 606.17l31.99 15.08-23.99-43.69-8 28.61z"/>
      <path class="portrait-600" d="M52.37 621.25l-36.91 28.91 4.92-43.99 31.99 15.08z"/>
      <path fill="#1c275b" d="M15.46 650.16l41.84 4.93-4.93-33.84-36.91 28.91z"/>
      <path fill="#16224d" d="M57.3 655.09l26.15 2.77-31.08-36.61 4.93 33.84z"/>
      <path fill="#131c42" d="M57.3 655.09l36.82 36.62-10.67-33.85-26.15-2.77z"/>
      <path fill="#0f1331" d="M94.12 691.71l-78.66-41.55 41.84 4.93 36.82 36.62z"/>
      <path fill="#14204c" d="M15.46 650.16l-1.23 21.85 79.89 19.7-78.66-41.55z"/>
      <path class="portrait-575" d="M94.12 691.71l-73.74 1.22-6.15-20.92 79.89 19.7z"/>
      <path fill="#202f62" d="M121.32 582.9l-6.8-115.05-20.97 119.02 27.77-3.97z"/>
      <path fill="#313c80" d="M114.52 467.85l74.25-73.39-15.36-15.96-58.89 89.35z"/>
      <path fill="#2c3c7a" d="M114.52 467.85l50.15-107.12 8.74 17.77-58.89 89.35z"/>
      <path fill="#232e65" d="M121.32 582.9L192.58 693l-76.92 1.55 5.66-111.65z"/>
      <path fill="#293d7f" d="M121.32 582.9l24.84-109.79-31.64-5.26 6.8 115.05z"/>
      <path fill="#364790" d="M146.16 473.11l42.61-78.65-74.25 73.39 31.64 5.26z"/>
      <path fill="#2c3b7b" d="M188.77 394.46l-10.74 80.22 31.53-65.45-20.79-14.77z"/>
      <path fill="#324289" d="M178.03 474.68l-31.87-1.57 42.61-78.65-10.74 80.22z"/>
      <path fill="#29397c" d="M178.03 474.68L121.32 582.9l24.84-109.79 31.87 1.57z"/>
      <path fill="#25346d" d="M178.03 474.68L192.58 693l-71.26-110.1 56.71-108.22z"/>
      <path fill="#242d65" d="M209.56 409.23l10.95 37.13-42.48 28.32 31.53-65.45z"/>
      <path fill="#0e1417" d="M236.06 423.38l-12.4 3.7-14.1-17.85 26.5 14.15z"/>
      <path fill="#1e244d" d="M223.66 427.08l-3.15 19.28-10.95-37.13 14.1 17.85z"/>
      <path fill="#273775" d="M220.51 446.36l-11.8 42.48-30.68-14.16 42.48-28.32z"/>
      <path fill="#2f387b" d="M208.71 488.84l-4.33 25.18-26.35-39.34 30.68 14.16z"/>
      <path fill="#273771" d="M204.38 514.02l-6.29 107.78-20.06-147.12 26.35 39.34z"/>
      <path fill="#1e2958" d="M198.09 621.8l-5.51 71.2-14.55-218.32 20.06 147.12z"/>
      <path fill="#20306d" d="M198.09 621.8l11.8-105.03-5.51-2.75-6.29 107.78z"/>
      <path fill="#5e6167" d="M209.89 516.77l-1.18-27.93-4.33 25.18 5.51 2.75z"/>
      <path fill="#1c181d" d="M209.89 516.77l14.25-60.22-15.43 32.29 1.18 27.93z"/>
      <path fill="#252725" d="M224.14 456.55l-3.63-10.19-11.8 42.48 15.43-32.29z"/>
      <path fill="#141518" d="M224.14 456.55l11.92-33.17-12.4 3.7.48 29.47z"/>
      <path fill="#242929" d="M224.14 456.55l-.48-29.47-3.15 19.28 3.63 10.19z"/>
      <path fill="#0a1326" d="M264.91 439.52l-26.82-7.25-2.03-8.89 28.85 16.14z"/>
      <path fill="#131830" d="M238.09 432.27l-13.95 24.28 11.92-33.17 2.03 8.89z"/>
      <path fill="#222a53" d="M238.09 432.27l7.57 11.36 19.25-4.11-26.82-7.25z"/>
      <path fill="#27262c" d="M264.91 439.52l-10.41 7.89h14.51l-4.1-7.89z"/>
      <path fill="#262f5d" d="M254.5 447.41l-23.98 25.25 15.14-29.03 8.84 3.78z"/>
      <path fill="#1e2134" d="M254.5 447.41l10.41-7.89-19.25 4.11 8.84 3.78z"/>
      <path fill="#1f244f" d="M230.52 472.66l7.57-40.39 7.57 11.36-15.14 29.03z"/>
      <path class="portrait-577" d="M230.52 472.66l-6.38-16.11 13.95-24.28-7.57 40.39z"/>
      <path fill="#293874" d="M230.52 472.66l17.04 75.73 6.94-100.98-23.98 25.25z"/>
      <path fill="#273873" d="M247.56 548.39l-20.83-27.77 3.79-47.96 17.04 75.73z"/>
      <path fill="#1f2a5f" d="M226.73 520.62l-2.59-64.07 6.38 16.11-3.79 47.96z"/>
      <path fill="#262d66" d="M226.73 520.62l-16.84-3.85 14.25-60.22 2.59 64.07z"/>
      <path fill="#1e2e63" d="M226.73 520.62L198.09 621.8l11.8-105.03 16.84 3.85z"/>
      <path fill="#242e6b" d="M198.09 621.8l49.47-73.41-20.83-27.77-28.64 101.18z"/>
      <path fill="#1d2b5e" d="M198.09 621.8l35.58 71.75-41.09-.55 5.51-71.2z"/>
      <path fill="#212e63" d="M233.67 693.55l13.89-145.16-49.47 73.41 35.58 71.75z"/>
      <path fill="#0d0f12" d="M269.01 447.41l-1.26 17.67-13.25-17.67h14.51z"/>
      <path fill="#1e1f1c" d="M267.75 465.08l-9.46-1.89-3.79-15.78 13.25 17.67z"/>
      <path fill="#3c3e3f" d="M258.29 463.19l-10.73 85.2 6.94-100.98 3.79 15.78z"/>
      <path fill="#252933" d="M267.75 465.08l-10.1 80.79.64-82.68 9.46 1.89z"/>
      <path fill="#1b1f22" d="M257.65 545.87l-10.09 2.52 10.73-85.2-.64 82.68z"/>
      <path fill="#2a2a2e" d="M257.65 545.87l-4.41 77.62-5.68-75.1 10.09-2.52z"/>
      <path fill="#3f3b3f" d="M253.24 623.49l-10.1 10.1h8.2l1.9-10.1z"/>
      <path fill="#5b5855" d="M253.24 623.49l-10.1 1.27v8.83l10.1-10.1z"/>
      <path fill="#1c1d25" d="M243.14 624.76l4.42-76.37 5.68 75.1-10.1 1.27z"/>
      <path fill="#1b213a" d="M247.56 548.39l-4.42 85.2-9.47 59.96 13.89-145.16z"/>
      <path fill="#1d265b" d="M251.34 633.59l-.63 60.59-17.04-.63 17.67-59.96z"/>
      <path fill="#21265e" d="M251.34 633.59h-8.2l-9.47 59.96 17.67-59.96z"/>
      <path fill="#090e1e" d="M264.91 439.52l24.93-3.47-6.18-12.36-18.75 15.83z"/>
      <path fill="#0d0f13" d="M289.84 436.05l29.06-16.88-35.24 4.52 6.18 12.36z"/>
      <path fill="#1f1f21" d="M289.84 436.05l-1.89 25.88 7.57-22.72-5.68-3.16z"/>
      <path fill="#212628" d="M295.52 439.21l-.63 44.18-6.94-21.46 7.57-22.72z"/>
      <path fill="#252935" d="M287.95 461.93v29.03l6.94-7.57-6.94-21.46z"/>
      <path fill="#232528" d="M294.89 483.39l-8.2 32.18 1.26-24.61 6.94-7.57z"/>
      <path fill="#282629" d="M286.69 515.57l-8.21-1.26 9.47-23.35-1.26 24.61z"/>
      <path fill="#2d3034" d="M286.69 515.57l-11.36 25.88 3.15-27.14 8.21 1.26z"/>
      <path fill="#424949" d="M275.33 541.45l-6.95-5.05 10.1-22.09-3.15 27.14z"/>
      <path fill="#26283c" d="M269.01 447.41l20.83-11.36-24.93 3.47 4.1 7.89z"/>
      <path fill="#182048" d="M269.01 447.41l18.94 14.52 1.89-25.88-20.83 11.36z"/>
      <path fill="#202d5f" d="M287.95 461.93l-20.2 3.15 1.26-17.67 18.94 14.52z"/>
      <path fill="#202e64" d="M287.95 461.93l-30.3 83.94 10.1-80.79 20.2-3.15z"/>
      <path fill="#213163" d="M287.95 461.93v29.03l-30.3 54.91 30.3-83.94z"/>
      <path fill="#222b56" d="M278.48 514.31l9.47-23.35-30.3 54.91 20.83-31.56z"/>
      <path fill="#293265" d="M268.38 536.4l-10.73 9.47 20.83-31.56-10.1 22.09z"/>
      <path fill="#1f2650" d="M275.33 541.45l-17.68 4.42 10.73-9.47 6.95 5.05z"/>
      <path fill="#263472" d="M275.33 541.45l15.14 88.35-32.82-83.93 17.68-4.42z"/>
      <path fill="#22336b" d="M290.47 629.8l-37.23-6.31 4.41-77.62 32.82 83.93z"/>
      <path fill="#212b65" d="M290.47 629.8l-39.76 64.38.63-60.59 39.13-3.79z"/>
      <path fill="#212c62" d="M290.47 629.8l-37.23-6.31-1.9 10.1 39.13-3.79z"/>
      <path fill="#2a3874" d="M290.47 629.8l73.21-94.66-88.35 6.31 15.14 88.35z"/>
      <path fill="#26366d" d="M363.68 535.14l-76.99-19.57-11.36 25.88 88.35-6.31z"/>
      <path fill="#101223" d="M295.52 439.21l23.38-20.04-29.06 16.88 5.68 3.16z"/>
      <path fill="#0a0e1c" d="M295.52 439.21l71.88-24.26-48.5 4.22-23.38 20.04z"/>
      <path fill="#0d1226" d="M367.4 414.95l22.79 27.41 5.53-34.34-28.32 6.93z"/>
      <path fill="#0c0e20" d="M390.19 442.36l38.97-45.18-33.44 10.84-5.53 34.34z"/>
      <path fill="#070c1c" d="M429.16 397.18l19.09 6.06 6.21-17.21-25.3 11.15z"/>
      <path fill="#091123" d="M448.25 403.24l-58.06 39.12 38.97-45.18 19.09 6.06z"/>
      <path class="portrait-515" d="M390.19 442.36l-94.67-3.15 71.88-24.26 22.79 27.41z"/>
      <path fill="#171d41" d="M390.19 442.36l-95.3 41.03.63-44.18 94.67 3.15z"/>
      <path fill="#233268" d="M390.19 442.36l-26.51 92.78-68.79-51.75 95.3-41.03z"/>
      <path fill="#293574" d="M294.89 483.39l-8.2 32.18 76.99 19.57-68.79-51.75z"/>
      <path fill="#253674" d="M363.68 535.14l63.75-82.68-37.24-10.1-26.51 92.78z"/>
      <path fill="#141939" d="M427.43 452.46l20.82-49.22-58.06 39.12 37.24 10.1z"/>
      <path fill="#060a1c" d="M448.25 403.24l30.01-27.75-23.8 10.54-6.21 17.21z"/>
      <path fill="#12193e" d="M448.25 403.24l24.62 16.4-45.44 32.82 20.82-49.22z"/>
      <path fill="#0e162f" d="M472.87 419.64l17.15-54.37-41.77 37.97 24.62 16.4z"/>
      <path fill="#1e2858" d="M472.87 419.64l-29.04 65.01-16.4-32.19 45.44-32.82z"/>
      <path class="portrait-600" d="M443.83 484.65l-80.15 50.49 63.75-82.68 16.4 32.19z"/>
      <path fill="#252e64" d="M363.68 535.14l34.08 62.48-107.29 32.18 73.21-94.66z"/>
      <path fill="#283876" d="M397.76 597.62l46.07-112.97-80.15 50.49 34.08 62.48z"/>
      <path fill="#202d62" d="M443.83 484.65l3.16 55.54-49.23 57.43 46.07-112.97z"/>
      <path fill="#242d6d" d="M446.99 540.19l25.88-120.55-29.04 65.01 3.16 55.54z"/>
      <path fill="#202b63" d="M446.99 540.19l63.74-91.51-37.86-29.04-25.88 120.55z"/>
      <path fill="#222e66" d="M510.73 448.68l-20.71-83.41-17.15 54.37 37.86 29.04z"/>
      <path fill="#3c509c" d="M490.02 365.27l45.96 34.81-25.25 48.6-20.71-83.41z"/>
      <path fill="#394d96" d="M535.98 400.08l23.98 20.19-49.23 28.41 25.25-48.6z"/>
      <path fill="#293674" d="M510.73 448.68l50.49 23.35-9.47-28.4-41.02 5.05z"/>
      <path fill="#283e85" d="M551.75 443.63l8.21-23.36-49.23 28.41 41.02-5.05z"/>
      <path fill="#375294" d="M559.96 420.27l32.19 53.02-40.4-29.66 8.21-23.36z"/>
      <path fill="#273673" d="M592.15 473.29l-30.93-1.26-9.47-28.4 40.4 29.66z"/>
      <path fill="#24336e" d="M510.73 448.68l-23.98 110.44-39.76-18.93 63.74-91.51z"/>
      <path fill="#253370" d="M486.75 559.12l-37.24 96.56-2.52-115.49 39.76 18.93z"/>
      <path fill="#1f2351" d="M486.75 559.12l-16.41 133.16-20.83-36.6 37.24-96.56z"/>
      <path fill="#1c275c" d="M449.51 655.68l-51.75-58.06 49.23-57.43 2.52 115.49z"/>
      <path fill="#273575" d="M449.51 655.68L290.47 629.8l107.29-32.18 51.75 58.06z"/>
      <path fill="#212758" d="M449.51 655.68l-198.8 38.5 39.76-64.38 159.04 25.88z"/>
      <path fill="#202c63" d="M449.51 655.68l20.83 36.6-219.63 1.9 198.8-38.5z"/>
      <path fill="#0b142e" d="M470.34 692.28l56.8-105.39-28.4 106.03-28.4-.64z"/>
      <path fill="#131639" d="M527.14 586.89l-40.39-27.77-16.41 133.16 56.8-105.39z"/>
      <path fill="#13193d" d="M527.14 586.89l13.89-44.81-54.28 17.04 40.39 27.77z"/>
      <path fill="#25336c" d="M561.22 472.03l-74.47 87.09 23.98-110.44 50.49 23.35z"/>
      <path class="portrait-523" d="M561.22 472.03l-20.19 70.05-54.28 17.04 74.47-87.09z"/>
      <path fill="#23306b" d="M592.15 473.29l-51.12 68.79 20.19-70.05 30.93 1.26z"/>
      <path fill="#27286a" d="M592.15 473.29l19.56 31.55-18.93 3.16-.63-34.71z"/>
      <path fill="#2a3671" d="M592.78 508l-51.75 34.08 51.12-68.79.63 34.71z"/>
      <path fill="#222c62" d="M592.78 508l-65.64 78.89 13.89-44.81L592.78 508z"/>
      <path fill="#222d63" d="M592.78 508l-71.95 181.13 6.31-102.24L592.78 508z"/>
      <path fill="#1e2652" d="M520.83 689.13l-22.09 3.79 28.4-106.03-6.31 102.24z"/>
      <path fill="#272a68" d="M592.78 508l31.55 97.82-12.62-100.98-18.93 3.16z"/>
      <path fill="#242e68" d="M624.33 605.82l1.9 87.1h-37.87l35.97-87.1z"/>
      <path fill="#212d64" d="M588.36 692.92L592.78 508l31.55 97.82-35.97 87.1z"/>
      <path fill="#191f4b" d="M588.36 692.92l-25.88-63.75L592.78 508l-4.42 184.92z"/>
      <path fill="#171e47" d="M562.48 629.17l-41.65 59.96L592.78 508l-30.3 121.17z"/>
      <path fill="#191f47" d="M520.83 689.13l67.53 3.79-25.88-63.75-41.65 59.96z"/>
      <path fill="#be887f" d="M182.55 206.96l-6.94 23.03 16.41-14.83-9.47-8.2z"/>
      <path fill="#4b201e" d="M209.69 177.45l.47 6.79-7.73-3.79 7.26-3z"/>
      <path fill="#2c130e" d="M209.69 177.45l-7.26 3-2.68-3.47 9.94.47z"/>
      <path fill="#542f25" d="M202.43 180.45l-2.68-3.47h-5.21l7.89 3.47z"/>
      <path fill="#614941" d="M210.16 184.24l3.63-6.63-4.1-.16.47 6.79z"/>
      <path fill="#814e46" d="M213.79 186.13l-3.63-1.89 3.63-6.63v8.52z"/>
      <path fill="#71594b" d="M213.79 186.13l7.26-6.63-7.26-1.89v8.52z"/>
      <path fill="#443e40" d="M166.17 73.93l-2.73-3.69 4.77-1.81-2.04 5.5z"/>
      <path class="portrait-264" d="M167.07 65c-2.27-.38-12.72-.68-12.72-.68l13.86 4.09z"/>
      <path class="portrait-336" d="M249.37 3.86l7.97 1.69 12.31 11.11-20.28-12.8z"/>
      <path stroke-width="10" fill="none" stroke="#fff" stroke-miterlimit="10" d="M474.17 83.33l98.39-32.56-101 157.06 2.61-124.5z"/>
      <path stroke-width="5" fill="none" stroke="#fff" stroke-miterlimit="10" d="M9.99 265.43l61.5 24.09v38.47l-61.5-62.56z"/>
      <path stroke-width="17" fill="none" stroke="#fff" stroke-miterlimit="10" d="M165.79 609.45l212.39-58.1-82.06 193.1-130.33-135z"/>
    </g>
  </g>
</svg>
