<svg xmlns="http://www.w3.org/2000/svg" viewBox="0 0 74.6 74.6">
  <defs>
    <style>
      .cls-1{fill:#fff;fill-rule:evenodd}
    </style>
  </defs>
  <g id="photoshop-icon" data-name="photoshop icon">
    <g id="photoshop-icon-2" data-name="photoshop icon 2">
      <path class="cls-1" d="M38.86 41.09a6.56 6.56 0 0 0 2.91.83c1 0 1.44-.36 1.44-.92s-.33-.83-1.6-1.26c-2.24-.77-3.11-2-3.09-3.31 0-2 1.74-3.59 4.42-3.59a7.19 7.19 0 0 1 3.07.63l-.6 2.36a5.15 5.15 0 0 0-2.35-.63c-.83 0-1.29.33-1.29.9s.42.78 1.75 1.26c2.07.71 2.94 1.77 3 3.39 0 2-1.6 3.55-4.71 3.55a7.58 7.58 0 0 1-3.51-.76zM35.7 30a7.06 7.06 0 0 0-4.58-1.22 27.42 27.42 0 0 0-4.58.32v15h3.36v-5.44a9.24 9.24 0 0 0 1.16.07 6.88 6.88 0 0 0 4.86-1.6 4.86 4.86 0 0 0 1.38-3.6A4.42 4.42 0 0 0 35.7 30zM31 36.1a5.58 5.58 0 0 1-1.1-.1v-4.47a5.62 5.62 0 0 1 1.4-.13c1.69 0 2.64.83 2.64 2.22 0 1.55-1.11 2.48-2.94 2.48z"/>
      <path fill="none" stroke="#fff" stroke-miterlimit="10" stroke-width=".75" d="M37.3.53L74.07 37.3 37.3 74.07.53 37.3z"/>
    </g>
  </g>
</svg>
