<svg xmlns="http://www.w3.org/2000/svg" viewBox="0 0 414.41 381.34"><defs><style>.cls-1,.cls-11,.cls-4,.cls-8{fill:none;stroke-miterlimit:10}.cls-1{stroke:#bf4d1b;stroke-width:2.41px}.cls-11,.cls-4,.cls-8{stroke:#fff}.cls-3{fill:#fff}.cls-4{stroke-width:.4px}.cls-8{stroke-width:.6px}.cls-11{stroke-width:.27px}</style></defs><g id="Layer_2" data-name="Layer 2"><g id="UI_DESIGN" data-name="UI DESIGN"><path class="cls-1" d="M1.21 232.72V13.58A12.37 12.37 0 0 1 13.58 1.21h387.26a12.37 12.37 0 0 1 12.37 12.37v219.14a12.37 12.37 0 0 1-12.37 12.37h-17.13"/><path stroke-width=".8" stroke="#fff" fill="none" stroke-miterlimit="10" d="M29.15 28.72h37.19V38.9H29.15z"/><path class="cls-3" d="M377.25 29.52h8.18v.91h-8.18zM377.25 36.27h8.18v.91h-8.18zM377.25 32.89h8.18v.91h-8.18z"/><path class="cls-4" d="M237.21 95.13h97.8v5.94h-97.8zM237.21 110.91h97.8v5.94h-97.8zM237.21 126.7h97.8v5.94h-97.8zM237.21 142.48h97.8v5.94h-97.8z"/><path stroke-width=".8" stroke="#bf4d1b" fill="none" stroke-miterlimit="10" d="M237.21 166h39.58v9.48h-39.58z"/><path d="M125.81 83.88h19.25l40.65 95.55h-21.82l-8.67-21.28H115.1l-8.67 21.28H85.15zm22 55.84L135.16 109l-12.6 30.77z" stroke-width=".72" stroke="#fff" fill="none" stroke-miterlimit="10"/><rect class="cls-1" x="298.39" y="200.77" width="73.24" height="140.05" rx="8.53" ry="8.53"/><rect x="69.53" y="164.59" width="162.46" height="268.76" rx="10.52" ry="10.52" transform="rotate(90 150.76 298.96)" stroke-width="2.29" stroke="#bf4d1b" fill="none" stroke-miterlimit="10"/><path class="cls-4" d="M332.38 229.43h5.27l11.12 26.15h-6l-2.37-5.82h-11l-2.38 5.82h-5.82zm6 15.28l-3.45-8.42-3.45 8.42z"/><path class="cls-8" d="M311.8 270.82h46.42v2.82H311.8zM311.8 278.31h46.42v2.82H311.8zM311.8 285.81h46.42v2.82H311.8z"/><path stroke-width=".6" stroke="#bf4d1b" fill="none" stroke-miterlimit="10" d="M325.93 300.69h18.17v4.35h-18.17z"/><path stroke-width=".54" stroke="#fff" fill="none" stroke-miterlimit="10" d="M31.49 242.67h25.17v6.89H31.49z"/><path class="cls-3" d="M267.05 243.21h5.54v.62h-5.54zM267.05 247.78h5.54v.62h-5.54zM267.05 245.5h5.54v.62h-5.54z"/><path class="cls-11" d="M172.29 287.61h66.18v4.02h-66.18zM172.29 298.29h66.18v4.02h-66.18zM172.29 308.97h66.18v4.02h-66.18zM172.29 319.65h66.18v4.02h-66.18z"/><path stroke-width=".54" stroke="#bf4d1b" fill="none" stroke-miterlimit="10" d="M172.29 335.56h26.78v6.41h-26.78z"/><path d="M96.9 280h13l27.51 64.65h-14.74l-5.87-14.4H89.66l-5.87 14.4h-14.4zm14.86 37.78L103.23 297l-8.53 20.78z" stroke-width=".49" stroke="#fff" fill="none" stroke-miterlimit="10"/></g></g></svg>